<?xml version="1.0" standalone="no"?>
<!DOCTYPE svg PUBLIC "-//W3C//DTD SVG 20010904//EN"
 "http://www.w3.org/TR/2001/REC-SVG-20010904/DTD/svg10.dtd">
<svg version="1.0" xmlns="http://www.w3.org/2000/svg"
 width="512.000000pt" height="512.000000pt" viewBox="0 0 512.000000 512.000000"
 preserveAspectRatio="xMidYMid meet">
<metadata>
Created by potrace 1.11, written by Peter Selinger 2001-2013
</metadata>
<g transform="translate(0.000000,512.000000) scale(0.100000,-0.100000)"
fill="#000000" stroke="none">
<path d="M1387 4084 c-1 -1 -27 -4 -57 -8 -191 -21 -320 -60 -645 -192 -201
-81 -411 -155 -525 -186 -41 -11 -77 -23 -80 -28 -3 -4 -5 -601 -4 -1325 0
-1113 2 -1318 14 -1325 8 -5 57 -23 109 -40 l96 -32 80 20 c44 11 150 44 235
74 l155 54 3 576 c2 444 5 578 15 586 15 13 255 97 462 162 88 27 166 54 174
59 11 7 15 40 15 152 1 78 -3 151 -9 162 -11 21 -82 51 -145 62 -22 4 -43 11
-46 16 -11 19 -117 -7 -324 -79 -82 -29 -119 -37 -127 -30 -18 15 -19 653 -1
664 7 4 199 70 428 147 228 76 420 143 427 149 13 10 18 295 5 314 -4 6 -29
21 -57 33 -39 17 -65 21 -123 19 -40 -1 -74 -3 -75 -4z m103 -34 c30 -10 53
-19 50 -19 -3 -1 -34 -11 -71 -24 -63 -22 -66 -23 -105 -6 -21 10 -48 20 -59
23 -27 7 -18 13 46 30 70 19 74 19 139 -4z m-233 -67 c29 -9 53 -20 53 -23 0
-4 -26 -16 -58 -26 -57 -19 -60 -19 -117 -2 -32 10 -60 20 -62 22 -4 4 103 44
121 45 5 1 33 -7 63 -16z m-209 -78 c23 -4 41 -12 39 -18 -2 -6 -28 -19 -58
-29 -53 -18 -55 -18 -111 3 -32 12 -58 25 -58 29 0 10 77 26 115 24 17 -1 49
-5 73 -9z m-188 -81 c22 -6 17 -9 -38 -30 -56 -21 -68 -23 -110 -13 -26 7 -56
16 -67 22 -18 10 -18 10 5 20 62 24 110 24 210 1z m-237 -67 c45 -15 40 -25
-18 -37 -30 -6 -57 -16 -60 -21 -4 -5 -15 -4 -28 3 -12 6 -40 17 -62 24 l-40
12 35 16 c38 17 127 19 173 3z m-203 -77 c23 -12 21 -14 -41 -36 l-64 -23 -58
21 c-31 11 -55 24 -52 27 30 30 166 37 215 11z m-220 -82 c36 -12 67 -24 70
-26 6 -5 9 -232 3 -232 -23 0 -155 56 -161 69 -6 13 -8 140 -3 199 1 17 17 15
91 -10z m-8 -289 c54 -16 71 -25 78 -45 11 -29 11 -214 0 -214 -20 0 -118 36
-140 51 -24 16 -25 21 -24 115 2 114 2 114 10 114 4 0 38 -9 76 -21z m4 -289
c32 -11 65 -28 72 -37 17 -24 17 -223 0 -223 -16 0 -148 47 -156 55 -7 6 -10
193 -4 213 6 17 19 15 88 -8z m1077 -211 c20 -5 37 -14 37 -18 0 -5 -23 -14
-50 -21 -28 -7 -52 -15 -55 -19 -5 -9 -134 31 -135 41 0 23 139 35 203 17z
m-234 -69 c58 -15 57 -26 -6 -47 l-58 -20 -65 22 -65 22 60 20 c33 12 69 19
80 16 11 -2 35 -8 54 -13z m-851 -11 c37 -12 72 -28 78 -35 14 -17 16 -224 2
-224 -20 0 -139 43 -151 54 -10 11 -14 97 -8 204 1 27 -3 27 79 1z m663 -71
l33 -11 -49 -17 c-46 -16 -51 -16 -56 -1 -15 40 11 50 72 29z m-636 -231 c55
-19 65 -44 63 -152 0 -49 -2 -93 -4 -96 -4 -7 -145 39 -158 52 -13 12 -15 212
-3 220 10 7 30 2 102 -24z m-15 -288 c63 -19 68 -23 74 -52 10 -56 5 -195 -7
-200 -12 -4 -140 43 -154 57 -4 3 -7 54 -7 111 -1 82 2 105 12 105 8 0 45 -9
82 -21z m5 -291 c66 -19 75 -38 73 -156 -1 -51 -4 -95 -7 -97 -11 -6 -145 44
-156 59 -9 11 -13 189 -6 215 1 4 22 -1 96 -21z m-22 -288 c31 -11 63 -20 72
-20 8 0 16 -6 17 -12 5 -44 4 -228 -1 -228 -22 0 -147 50 -156 63 -18 25 -11
217 8 217 2 0 28 -9 60 -20z m5 -291 c37 -12 73 -26 80 -32 8 -6 12 -43 12
-118 0 -109 0 -109 -24 -109 -14 0 -27 4 -30 9 -3 4 -26 14 -52 21 -62 18 -71
36 -69 145 3 103 3 105 10 105 3 0 36 -10 73 -21z"/>
<path d="M1914 4074 c-74 -12 -144 -31 -156 -43 -6 -5 -13 -1967 -9 -2481 l1
-156 33 -12 c66 -26 1048 -352 1060 -352 19 0 210 62 225 73 7 6 12 33 12 66
0 32 6 65 13 74 6 9 39 24 72 32 33 9 76 24 95 33 l35 17 3 446 c2 349 -1 449
-10 457 -7 5 -52 22 -100 37 -93 28 -108 41 -108 93 0 40 22 56 120 86 47 14
91 30 98 34 9 7 12 105 10 457 l-3 450 -75 23 c-41 13 -92 31 -112 40 l-38 15
0 131 c0 72 -4 136 -8 142 -6 10 -60 26 -127 38 -126 24 -302 90 -520 196 -77
38 -165 76 -195 84 -101 30 -217 37 -316 20z m142 -35 c44 -11 59 -28 27 -30
-10 0 -36 -8 -58 -18 -39 -17 -42 -17 -97 3 -32 12 -58 24 -58 27 0 8 70 26
108 28 18 0 53 -4 78 -10z m180 -62 c4 -4 13 -7 20 -7 7 0 25 -5 41 -11 27
-11 27 -11 -41 -34 -60 -21 -72 -22 -100 -10 -17 7 -42 17 -56 23 l-25 10 30
12 c17 7 44 14 60 17 17 3 31 6 33 8 5 5 31 0 38 -8z m-361 -22 c43 -15 72
-31 76 -42 8 -23 6 -199 -3 -208 -6 -6 -144 37 -155 49 -4 4 -7 175 -4 214 1
16 4 15 86 -13z m266 -85 c14 0 24 -10 32 -32 6 -18 10 -36 9 -41 -1 -4 -3
-44 -3 -88 l-1 -81 -33 5 c-18 3 -55 15 -84 27 l-51 22 0 108 c0 58 2 109 6
112 3 3 27 -3 55 -13 27 -11 58 -19 70 -19z m365 17 c31 -17 33 -15 -46 -41
-43 -14 -49 -14 -110 9 -36 13 -63 24 -60 25 3 0 23 7 45 14 49 17 132 14 171
-7z m188 -61 c32 -10 55 -21 50 -25 -5 -5 -33 -16 -62 -25 -50 -16 -56 -16
-107 0 -30 10 -55 20 -55 23 0 7 102 49 110 46 3 -2 31 -10 64 -19z m-385 -17
c43 -15 65 -28 70 -43 8 -21 7 -203 -1 -211 -2 -3 -38 9 -79 25 l-74 28 -3
111 c-2 87 0 111 11 111 7 0 41 -10 76 -21z m606 -58 c48 -15 56 -20 40 -26
-11 -4 -33 -13 -50 -20 -51 -22 -59 -22 -95 -7 -19 8 -46 19 -60 25 -24 9 -22
11 30 27 70 23 65 23 135 1z m-394 -12 c38 -12 72 -26 76 -32 10 -15 12 -216
3 -222 -7 -5 -110 29 -142 46 -16 8 -18 25 -18 119 0 61 3 110 6 110 3 0 37
-9 75 -21z m-654 -71 c38 -11 72 -25 78 -30 5 -5 10 -58 11 -119 1 -108 1
-111 -20 -106 -11 3 -41 11 -66 17 -78 19 -82 26 -84 132 -2 87 1 128 10 128
2 0 34 -10 71 -22z m883 -3 c25 -10 50 -22 55 -27 16 -14 14 -228 -1 -228 -7
0 -15 4 -18 9 -3 5 -21 12 -39 15 -70 13 -77 25 -77 140 0 102 4 121 24 112 6
-2 31 -12 56 -21z m-643 -76 c51 -17 63 -25 67 -47 7 -31 5 -202 -2 -202 -20
0 -149 45 -154 54 -4 6 -8 57 -8 114 0 118 -3 115 97 81z m420 -140 c34 -11
65 -28 69 -37 9 -21 14 -652 5 -652 -18 0 -134 40 -147 50 -20 17 -21 660 -1
660 7 0 41 -9 74 -21z m-649 -75 c56 -21 72 -31 74 -48 2 -28 3 -206 1 -206
-1 0 -38 12 -82 26 -57 18 -81 31 -82 43 -5 83 0 211 9 211 4 0 40 -12 80 -26z
m869 1 c31 -14 61 -31 65 -38 4 -7 8 -58 8 -114 0 -114 0 -114 -65 -83 -22 11
-48 19 -58 20 -26 0 -32 28 -31 127 2 113 2 113 14 113 5 0 35 -11 67 -25z
m420 4 l28 -12 -50 -16 c-27 -9 -54 -19 -60 -22 -5 -4 -39 4 -75 16 l-65 22
30 17 c33 18 140 16 192 -5z m-1070 -75 c86 -27 84 -22 82 -144 0 -66 -5 -110
-11 -110 -5 0 -43 12 -84 26 l-74 27 0 107 c0 59 3 110 7 114 4 3 14 4 22 0 9
-3 35 -12 58 -20z m893 -12 c42 -17 47 -32 48 -140 l0 -104 -27 5 c-40 8 -125
41 -133 52 -9 12 -11 209 -2 218 6 5 62 -10 114 -31z m-1158 -191 c13 -5 42
-15 66 -22 24 -7 47 -20 51 -28 9 -18 9 -206 0 -215 -7 -8 -130 33 -149 50
-12 10 -15 34 -14 106 1 51 2 99 3 106 1 14 12 15 43 3z m872 0 c3 -5 21 -12
39 -15 71 -13 77 -25 77 -147 0 -110 -3 -118 -38 -100 -9 5 -38 17 -64 26 -27
9 -49 22 -49 28 -4 39 -5 194 -1 205 5 14 28 16 36 3z m-587 -93 c29 -10 54
-27 58 -37 7 -24 3 -201 -5 -206 -10 -6 -128 31 -146 45 -10 9 -14 38 -14 115
0 56 3 105 7 108 7 8 22 4 100 -25z m853 0 c30 -12 57 -24 60 -26 8 -6 7 -212
-1 -217 -6 -4 -69 13 -131 37 l-28 10 0 109 c0 106 1 109 22 109 13 0 47 -10
78 -22z m-1096 -209 c34 -12 67 -26 74 -31 16 -13 17 -215 1 -220 -6 -2 -44 7
-85 20 -71 23 -74 25 -75 55 -2 32 -1 175 0 190 1 12 21 8 85 -14z m894 -12
l47 -22 3 -104 c1 -57 -1 -108 -6 -113 -9 -9 -132 36 -142 51 -4 8 -5 162 -1
210 1 16 33 10 99 -22z m-674 -63 c39 -14 74 -31 78 -37 12 -19 10 -217 -3
-217 -20 0 -144 45 -151 55 -9 12 -11 225 -2 225 4 0 39 -12 78 -26z m421 5
l30 -12 -45 -13 c-25 -7 -53 -18 -62 -23 -20 -12 -141 25 -132 41 18 29 143
34 209 7z m444 -5 c46 -17 72 -32 73 -43 6 -73 2 -201 -8 -205 -12 -5 -128 34
-141 48 -10 10 -13 226 -2 226 4 0 40 -12 78 -26z m-355 -60 c9 -23 7 -54 -3
-54 -13 0 -81 29 -81 35 0 5 58 33 71 34 4 1 10 -6 13 -15z m-264 -24 c21 -10
40 -26 43 -34 7 -17 8 -196 2 -206 -6 -10 -147 39 -157 54 -4 6 -8 58 -8 115
l0 104 41 -7 c22 -4 58 -15 79 -26z m188 -62 c77 -26 82 -35 80 -158 -2 -91
-8 -110 -31 -92 -7 5 -37 17 -68 26 -31 9 -60 23 -63 32 -12 30 -7 214 6 214
6 0 40 -10 76 -22z m-665 -68 c31 -11 63 -20 72 -20 17 0 17 -1 20 -133 1 -54
-2 -100 -6 -102 -9 -6 -116 31 -144 49 -19 12 -20 22 -19 107 2 118 2 119 12
119 4 0 33 -9 65 -20z m872 -1 c33 -11 66 -25 73 -31 19 -16 17 -228 -2 -228
-8 0 -17 4 -20 9 -3 5 -21 12 -40 15 -19 4 -45 15 -58 25 -22 18 -23 25 -22
117 2 108 3 114 7 114 1 0 30 -9 62 -21z m-567 -102 c13 -10 18 -227 5 -227
-13 1 -120 38 -142 50 -19 10 -21 20 -21 114 0 56 2 105 5 108 7 7 135 -31
153 -45z m418 -140 c5 -4 10 -15 12 -25 8 -31 9 -632 2 -637 -4 -2 -34 5 -66
16 -104 37 -94 -3 -94 363 0 177 2 325 5 328 7 6 129 -33 141 -45z m568 -40
c35 -13 37 -16 20 -25 -10 -5 -35 -12 -54 -16 -19 -3 -36 -9 -37 -13 -3 -9
-133 28 -133 38 0 11 96 37 130 34 19 -1 53 -9 74 -18z m-1280 -7 c87 -29 86
-28 86 -145 0 -113 -4 -121 -55 -99 -16 8 -49 18 -72 24 -48 12 -44 3 -47 130
-2 87 2 110 18 110 6 0 38 -9 70 -20z m895 -13 l46 -22 3 -104 c3 -105 -5
-134 -30 -114 -7 6 -36 18 -64 27 -31 10 -54 24 -56 34 -3 14 -2 176 1 206 1
11 44 0 100 -27z m-661 -67 c30 -9 58 -23 63 -31 10 -16 12 -219 2 -219 -18 0
-149 46 -155 55 -10 13 -10 209 -1 219 4 3 14 4 22 0 9 -4 40 -14 69 -24z
m860 3 c28 -11 55 -23 60 -27 8 -9 10 -226 2 -226 -3 0 -39 13 -80 28 l-75 28
-3 113 -3 113 23 -5 c13 -3 47 -14 76 -24z m-1093 -212 c42 -13 64 -26 72 -42
15 -28 13 -214 -2 -214 -29 1 -146 49 -153 63 -6 13 -9 196 -3 210 3 6 30 0
86 -17z m851 3 c22 -9 41 -16 44 -15 23 5 40 -15 44 -52 7 -51 3 -183 -5 -191
-3 -4 -36 7 -73 23 -74 34 -70 24 -68 161 1 92 1 90 11 90 5 0 26 -7 47 -16z
m-636 -76 c87 -25 85 -21 88 -146 1 -62 0 -112 -2 -112 -14 0 -142 44 -153 53
-9 7 -13 43 -13 119 0 109 0 109 23 103 12 -4 38 -11 57 -17z m908 -14 c12 -4
27 -14 31 -23 13 -24 8 -214 -6 -218 -15 -5 -135 44 -145 60 -9 14 -11 201 -2
210 3 3 27 -1 52 -9 26 -8 57 -17 70 -20z m-1123 -205 c36 -11 68 -26 72 -32
12 -18 12 -211 1 -218 -5 -3 -35 4 -66 17 -31 12 -59 21 -63 18 -4 -2 -13 3
-20 12 -19 23 -20 224 -1 224 7 0 42 -9 77 -21z m847 7 c15 -8 40 -17 57 -21
25 -5 31 -13 35 -38 7 -48 2 -202 -7 -200 -4 1 -32 10 -62 18 -30 9 -60 24
-67 34 -11 15 -16 138 -9 209 1 16 20 15 53 -2z m-238 -65 c67 -20 63 -28 -24
-49 -36 -9 -58 -8 -99 3 -52 13 -69 21 -60 28 3 3 101 32 119 36 3 0 32 -8 64
-18z m-393 -12 c35 -12 70 -26 77 -32 19 -15 17 -216 -3 -223 -8 -4 -21 -2
-28 4 -6 5 -32 16 -57 23 -25 7 -51 17 -57 22 -15 11 -19 227 -5 227 4 0 37
-10 73 -21z m871 -6 c61 -23 68 -29 72 -57 6 -41 2 -183 -5 -191 -4 -3 -22 1
-40 9 -19 8 -45 17 -59 20 -52 12 -54 18 -56 135 -1 74 2 111 10 111 6 0 41
-12 78 -27z m-629 -79 c33 -13 47 -24 48 -39 5 -75 3 -192 -4 -201 -5 -8 -18
-6 -44 7 -21 11 -44 19 -53 19 -9 0 -26 7 -38 16 -20 14 -22 23 -22 124 l0
108 33 -8 c17 -4 53 -16 80 -26z m273 11 c9 -36 1 -40 -53 -25 l-47 14 40 17
c52 23 53 23 60 -6z m-69 -77 c29 -10 56 -25 60 -31 12 -19 12 -217 0 -217
-17 0 -131 41 -144 52 -14 11 -19 209 -6 222 4 3 14 4 22 0 9 -3 40 -15 68
-26z m209 -69 c62 -21 63 -22 69 -63 7 -49 2 -182 -6 -190 -10 -10 -139 52
-140 66 -5 76 -2 208 5 208 5 0 38 -10 72 -21z"/>
<path d="M4455 4043 c-150 -44 -359 -111 -590 -191 l-260 -90 -1 -113 c0 -63
-4 -130 -7 -149 -7 -34 -9 -36 -80 -54 -93 -24 -124 -40 -128 -68 -2 -13 -4
-479 -3 -1036 0 -869 2 -1015 15 -1023 8 -5 53 -21 101 -36 96 -29 98 -31 98
-119 0 -29 5 -56 13 -61 6 -6 44 -18 82 -28 39 -10 80 -25 93 -33 26 -17 75
-11 148 17 27 11 148 51 269 90 272 86 726 241 741 252 7 6 10 172 8 551 -1
299 -2 566 -3 594 l-1 50 -57 27 c-136 64 -254 56 -424 -29 -107 -53 -367
-132 -383 -116 -4 3 -6 218 -6 478 0 367 3 475 13 481 26 16 149 54 155 48 4
-4 8 -92 9 -196 1 -105 4 -197 7 -205 10 -26 114 -66 183 -72 58 -4 84 2 261
57 108 34 208 68 222 74 l25 13 0 274 c0 151 -2 288 -4 303 -4 31 -36 49 -145
84 -28 9 -56 21 -61 28 -6 7 -9 34 -8 61 3 76 -1 81 -80 105 -40 11 -85 27
-100 35 -34 16 -37 16 -102 -3z m100 -52 c57 -21 60 -32 13 -44 -18 -4 -43
-12 -54 -18 -17 -9 -35 -6 -83 11 -34 13 -60 24 -59 26 7 6 104 42 118 43 8 1
38 -8 65 -18z m-226 -76 c23 -8 44 -14 47 -14 18 2 13 -12 -7 -20 -78 -30
-103 -32 -164 -12 l-60 19 30 12 c82 33 99 35 154 15z m-210 -74 c49 -17 52
-20 33 -30 -11 -6 -27 -11 -34 -11 -7 0 -24 -6 -38 -13 -22 -12 -34 -11 -90 9
-39 14 -59 25 -50 28 27 10 105 34 115 35 6 1 35 -7 64 -18z m-186 -85 l32
-13 -67 -22 -67 -22 -47 20 c-26 12 -53 21 -62 21 -24 0 -4 14 36 26 45 13
132 8 175 -10z m874 3 l28 -11 -44 -19 c-48 -21 -64 -16 -55 19 7 24 28 28 71
11z m-1082 -79 c22 -11 45 -19 52 -20 7 0 17 -9 23 -20 13 -25 10 -203 -4
-212 -5 -3 -22 0 -37 8 -16 8 -36 14 -46 14 -10 1 -29 7 -43 14 -24 14 -25 18
-25 125 -1 126 2 129 80 91z m740 -222 c1 -76 -2 -98 -13 -103 -8 -3 -20 -1
-26 3 -6 5 -24 12 -41 16 -78 17 -85 24 -85 80 l0 51 68 26 c98 39 96 40 97
-73z m-775 -57 l55 -19 -57 -16 c-32 -10 -60 -21 -63 -26 -5 -8 -99 24 -118
40 -9 8 63 34 103 37 14 2 50 -6 80 -16z m-171 -91 c37 -12 57 -24 62 -39 6
-16 6 -206 0 -218 -1 -1 -36 12 -78 30 l-78 33 -2 99 c-2 117 1 130 25 120 9
-4 41 -15 71 -25z m868 5 c76 -23 83 -37 80 -167 -2 -103 -3 -104 -101 -59
-74 33 -73 31 -68 164 3 63 7 87 15 84 7 -2 40 -12 74 -22z m-862 -296 c65
-20 65 -21 65 -140 0 -85 -3 -109 -13 -109 -20 0 -128 38 -142 50 -11 9 -19
204 -9 222 3 3 17 3 32 -2 15 -5 45 -14 67 -21z m56 -321 c4 -6 6 -58 5 -117
-1 -88 -4 -106 -16 -104 -29 4 -135 45 -141 55 -7 12 -10 187 -3 210 5 16 11
15 77 -9 40 -14 75 -30 78 -35z m1199 -97 c53 -17 54 -18 30 -28 -89 -38 -102
-40 -163 -19 -62 21 -61 26 8 52 42 16 62 15 125 -5z m-250 -66 c14 -8 38 -14
55 -15 41 0 19 -20 -48 -42 -50 -16 -54 -16 -110 4 -31 11 -56 22 -55 24 8 7
105 43 118 43 8 0 26 -6 40 -14z m-954 -125 c19 -16 21 -216 2 -223 -18 -6
-118 30 -139 49 -14 13 -17 33 -17 117 0 56 2 105 4 108 5 8 130 -35 150 -51z
m805 33 c7 -7 -8 -17 -50 -33 -63 -23 -74 -22 -165 13 l-29 11 34 13 c39 15
194 12 210 -4z m-211 -75 c36 -13 67 -24 70 -26 8 -6 9 -221 1 -227 -10 -5
-130 33 -148 48 -9 6 -13 43 -13 118 0 81 3 109 13 109 6 0 41 -10 77 -22z
m-659 -222 c43 -16 65 -30 71 -46 4 -12 7 -63 5 -114 -3 -83 -5 -91 -23 -89
-20 2 -111 34 -130 45 -17 11 -17 228 0 228 8 0 42 -11 77 -24z m662 -72 c31
-9 57 -19 58 -23 0 -3 3 -15 5 -26 10 -42 9 -367 -1 -375 -5 -4 -30 -13 -55
-20 -25 -6 -55 -18 -67 -26 -21 -13 -22 -12 -28 39 -7 62 -8 97 -6 291 2 153
4 171 24 162 7 -2 38 -12 70 -22z m288 14 c1 -7 2 -55 4 -105 2 -82 0 -93 -15
-93 -9 0 -20 3 -24 7 -4 4 -33 17 -64 28 l-57 20 -3 45 c-1 25 1 50 5 55 7 9
121 51 146 54 4 1 7 -5 8 -11z m-933 -238 c24 -8 47 -21 52 -29 11 -22 6 -227
-5 -224 -41 10 -138 52 -145 63 -5 8 -8 60 -8 116 l1 101 31 -7 c17 -4 50 -13
74 -20z m864 5 c31 -9 61 -22 68 -29 14 -18 10 -232 -5 -229 -39 10 -132 47
-142 57 -13 12 -16 50 -14 164 1 55 3 63 19 58 9 -3 42 -12 74 -21z m-810
-328 c4 -6 8 -58 8 -114 0 -94 -2 -103 -19 -103 -26 0 -124 41 -137 57 -14 17
-15 205 -1 214 12 8 139 -38 149 -54z m744 51 c35 -6 64 -15 64 -19 0 -9 -26
-19 -48 -19 -9 0 -29 -6 -44 -14 -24 -12 -33 -12 -87 8 l-60 22 27 17 c32 20
63 21 148 5z m-181 -82 c27 -12 28 -14 10 -21 -11 -3 -30 -11 -43 -16 -19 -7
-24 -5 -31 14 -15 39 8 48 64 23z m-336 -303 c-1 -67 -5 -96 -14 -99 -7 -3
-44 7 -82 23 l-68 29 0 49 0 50 75 26 c41 15 79 25 83 22 4 -2 7 -47 6 -100z"/>
</g>
</svg>
