<?xml version="1.0" encoding="UTF-8" standalone="no"?>
<svg
   xmlns:dc="http://purl.org/dc/elements/1.1/"
   xmlns:cc="http://creativecommons.org/ns#"
   xmlns:rdf="http://www.w3.org/1999/02/22-rdf-syntax-ns#"
   xmlns:svg="http://www.w3.org/2000/svg"
   xmlns="http://www.w3.org/2000/svg"
   xmlns:sodipodi="http://sodipodi.sourceforge.net/DTD/sodipodi-0.dtd"
   xmlns:inkscape="http://www.inkscape.org/namespaces/inkscape"
   viewBox="0 0 2 1.000001"
   stroke-miterlimit="1.414"
   id="svg2"
   version="1.1"
   inkscape:version="0.91 r13725"
   sodipodi:docname="ship2.svg"
   width="2"
   height="1.000001"
   style="clip-rule:evenodd;fill-rule:evenodd;stroke-linecap:round;stroke-linejoin:round;stroke-miterlimit:1.41400003">
  <metadata
     id="metadata133">
    <rdf:RDF>
      <cc:Work
         rdf:about="">
        <dc:format>image/svg+xml</dc:format>
        <dc:type
           rdf:resource="http://purl.org/dc/dcmitype/StillImage" />
        <dc:title />
      </cc:Work>
    </rdf:RDF>
  </metadata>
  <defs
     id="defs131" />
  <sodipodi:namedview
     pagecolor="#ffffff"
     bordercolor="#666666"
     borderopacity="1"
     objecttolerance="10"
     gridtolerance="10"
     guidetolerance="10"
     inkscape:pageopacity="0"
     inkscape:pageshadow="2"
     inkscape:window-width="3106"
     inkscape:window-height="1444"
     id="namedview129"
     showgrid="false"
     fit-margin-top="0"
     fit-margin-left="0"
     fit-margin-right="0"
     fit-margin-bottom="0"
     inkscape:zoom="256"
     inkscape:cx="4.2641877"
     inkscape:cy="-0.47067143"
     inkscape:window-x="15"
     inkscape:window-y="1158"
     inkscape:window-maximized="0"
     inkscape:current-layer="svg2" />
  <path
     d="m 0.00302935,0.13654782 0,0.69187141 c 0,0 0.68558763,0.0874634 0.99899795,0.0826599 C 1.5667241,0.90207261 1.9990374,0.67414743 1.9969808,0.47280151 1.9948508,0.26395015 1.5516724,0.04403077 1.0020273,0.04004788 0.68836825,0.03804643 0.00302935,0.1365178 0.00302935,0.1365178 Z"
     id="path4"
     inkscape:connector-curvature="0"
     style="fill:#595959" />
  <clipPath
     id="a">
    <path
       d="m 2.996,50.016 0,251.014 c 0,0 339.02,31.748 494,30 279.24,-3.15 493.017,-85.958 492,-159.008 -1.055,-75.773 -220.203,-155.563 -492,-157.008 -155.103,-0.825 -494,35.002 -494,35.002 z"
       id="path7"
       inkscape:connector-curvature="0" />
  </clipPath>
  <g
     clip-path="url(#a)"
     id="g9"
     transform="matrix(0.00202226,0,0,0.0027563,-0.00302935,-0.00131209)">
    <path
       d="m 616,15 -382,0 0,318.016 382,0 C 650.44,232.188 647.894,91.53 616,15 Z"
       id="path11"
       inkscape:connector-curvature="0"
       style="fill:#808080;stroke:#737373;stroke-width:5" />
    <path
       d="m 1.996,18.014 243,0 0,308.016 -243,0 z"
       id="path13"
       inkscape:connector-curvature="0"
       style="fill:#999999" />
    <clipPath
       id="b">
      <path
         d="m 1.996,18.014 243,0 0,308.016 -243,0 z"
         id="path16"
         inkscape:connector-curvature="0" />
    </clipPath>
    <g
       clip-path="url(#b)"
       id="g18">
      <path
         d="M 247.086,24.95 -8.69,303.286 l 7.36,6.767 255.78,-278.334 -7.364,-6.767 z"
         id="path20"
         inkscape:connector-curvature="0"
         style="fill:#ebebeb" />
      <path
         d="m -10.004,44.88 252.68,281.15 7.436,-6.685 -252.678,-281.15 -7.438,6.684 z"
         id="path22"
         inkscape:connector-curvature="0"
         style="fill:#ebebeb" />
      <ellipse
         cx="113.231"
         cy="175.778"
         rx="65.768997"
         ry="50.172398"
         id="ellipse24"
         style="fill:none;stroke:#ffffff;stroke-width:10" />
      <path
         d="m 206.5,6 10,0 0,375.02 -10,0 z"
         id="path34"
         inkscape:connector-curvature="0"
         style="fill:#ffd200" />
    </g>
    <path
       d="M 374,34 267,46 264,302 380,312 415,297 413.074,45 374,34 Z"
       id="path36"
       inkscape:connector-curvature="0"
       style="fill:#999999;stroke:#a6a6a6;stroke-width:4" />
  </g>
  <g
     id="g40"
     style="fill:#f2f2f2;stroke:#cccccc;stroke-width:2;stroke-linecap:butt;stroke-linejoin:miter"
     transform="matrix(0.00202226,0,0,0.0027563,-0.00302935,-0.00131209)">
    <path
       d="m 608.196,327.92 c 0.544,-5.294 -3.305,-10.025 -8.598,-10.57 l -50.733,-5.21 c -5.292,-0.545 -10.023,3.305 -10.567,8.597 -0.544,5.293 3.306,10.024 8.598,10.568 l 50.733,5.212 c 5.29,0.544 10.023,-3.306 10.566,-8.598 z"
       id="path42"
       inkscape:connector-curvature="0" />
    <path
       d="m 609.702,313.263 c 0.544,-5.293 -3.306,-10.024 -8.598,-10.568 l -50.733,-5.212 c -5.29,-0.544 -10.023,3.306 -10.566,8.598 -0.544,5.294 3.305,10.025 8.598,10.57 l 50.733,5.21 c 5.292,0.545 10.023,-3.305 10.567,-8.597 z"
       id="path44"
       inkscape:connector-curvature="0" />
  </g>
  <g
     id="g46"
     style="fill:#f2f2f2;stroke:#cccccc;stroke-width:2;stroke-linecap:butt;stroke-linejoin:miter"
     transform="matrix(0.00202226,0,0,0.0027563,-0.00302935,-0.00131209)">
    <path
       d="m 607.95,12.65 c 0.544,5.292 -3.306,10.023 -8.598,10.567 L 548.62,28.43 c -5.294,0.543 -10.025,-3.306 -10.57,-8.6 -0.543,-5.29 3.307,-10.023 8.6,-10.566 l 50.732,-5.213 c 5.293,-0.543 10.024,3.307 10.568,8.6 z"
       id="path48"
       inkscape:connector-curvature="0" />
    <path
       d="m 609.456,27.306 c 0.543,5.292 -3.306,10.023 -8.6,10.567 l -50.732,5.213 c -5.292,0.543 -10.023,-3.306 -10.567,-8.6 -0.544,-5.29 3.306,-10.022 8.598,-10.566 l 50.733,-5.213 c 5.293,-0.543 10.024,3.306 10.568,8.6 z"
       id="path50"
       inkscape:connector-curvature="0" />
  </g>
  <ellipse
     cx="1.5773693"
     cy="0.47966823"
     id="circle52"
     style="fill:none;stroke:#999999;stroke-width:0.01180461"
     rx="0.21537101"
     ry="0.2231819" />
  <ellipse
     cx="1.5713025"
     cy="0.47884366"
     rx="0.12436918"
     ry="0.17054023"
     id="ellipse54"
     style="fill:#999999" />
  <path
     d="M 1.5277712,0.67074496 C 1.4564982,0.56000471 1.4555302,0.37816292 1.5299212,0.28486531 l 0.1469983,0.097971 -0.00108,0.19293982 -0.1480701,0.0949688"
     id="path56"
     inkscape:connector-curvature="0"
     style="fill:#cccccc" />
  <clipPath
     id="c">
    <path
       d="m 756.974,243.824 c -35.244,-40.175 -35.723,-106.15 1.063,-140 l 72.69,35.56 -0.532,70 -73.22,34.44"
       id="path59"
       inkscape:connector-curvature="0" />
  </clipPath>
  <g
     clip-path="url(#c)"
     id="g61"
     transform="matrix(0.00202226,0,0,0.0027563,-0.00302935,-0.00131209)">
    <path
       d="m 835.924,166.586 -60.796,-0.467 -0.114,14.998 60.796,0.468 0.114,-15 z"
       id="path63"
       inkscape:connector-curvature="0"
       style="fill:#4d4d4d" />
    <path
       d="m 838.787,184.61 -66.796,-0.515 0.16,-21 0.002,0 66.795,0.514 -0.16,20.998 z m -2.977,-3.024 0.114,-15 -60.796,-0.467 -0.114,14.998 60.796,0.468 z"
       id="path65"
       inkscape:connector-curvature="0"
       style="fill:#b3b3b3" />
  </g>
  <path
     d="M 1.5277712,0.67074496 C 1.4564982,0.56000471 1.4555302,0.37816292 1.5299212,0.28486531 l 0.1469983,0.097971 -0.00108,0.19293982 -0.1480701,0.0949688"
     id="path67"
     inkscape:connector-curvature="0"
     style="fill:none;stroke:#e6e6e6;stroke-width:0.00708277" />
  <path
     d="m 1.895993,0.47199092 -0.3257017,-0.007005 0,0.0238173 0.3257017,-9.6069e-4 0,-0.0163118 z"
     id="path69"
     inkscape:connector-curvature="0"
     style="fill:#e6e6e6" />
  <ellipse
     cx="1.8645307"
     cy="0.39146954"
     id="circle71"
     style="fill:#404040"
     rx="0.021233762"
     ry="0.028941097" />
  <path
     d="m 1.8645306,0.42453653 -3.134e-4,0 -3.115e-4,-1.001e-5 -3.094e-4,-1.001e-5 -3.094e-4,-2.001e-5 -3.094e-4,-2.001e-5 -3.074e-4,-3.003e-5 -3.073e-4,-3.002e-5 -3.034e-4,-5.003e-5 -3.074e-4,-4.003e-5 -3.033e-4,-5.004e-5 -3.034e-4,-5.004e-5 -3.033e-4,-7.005e-5 -2.993e-4,-6.004e-5 -2.993e-4,-7.005e-5 -2.993e-4,-8.006e-5 -2.972e-4,-8.006e-5 -2.953e-4,-8.005e-5 -2.952e-4,-9.007e-5 -2.913e-4,-1.0007e-4 -2.912e-4,-1.0008e-4 -2.891e-4,-1.0007e-4 -2.912e-4,-1.1008e-4 -2.872e-4,-1.1008e-4 -2.872e-4,-1.2008e-4 -2.831e-4,-1.2009e-4 -2.831e-4,-1.301e-4 -2.831e-4,-1.401e-4 -2.791e-4,-1.401e-4 -2.77e-4,-1.401e-4 -2.771e-4,-1.401e-4 -2.75e-4,-1.5011e-4 -2.73e-4,-1.6012e-4 -2.751e-4,-1.5011e-4 -2.689e-4,-1.7012e-4 -2.67e-4,-1.7012e-4 L 1.8540148,0.42127416 1.8537479,0.42109403 1.853485,0.4209139 1.8532221,0.42073377 1.8529653,0.42053363 1.8527064,0.42034349 1.8524516,0.42015335 1.8521989,0.4199432 1.8519501,0.41974306 1.8516994,0.4195329 1.8514526,0.41932275 1.85121,0.41910259 1.8509673,0.41888243 1.8507246,0.41865226 1.850486,0.4184221 1.8502494,0.41819193 1.8500148,0.41796176 1.8497802,0.41772159 1.8495497,0.41748142 1.8493232,0.41723123 1.8490967,0.41698105 1.8488743,0.41672087 1.8486518,0.41646068 1.8484334,0.41620049 1.848217,0.4159403 1.8480047,0.4156701 1.8477944,0.41539991 1.8475861,0.4151197 1.8473798,0.41484951 1.8471776,0.4145593 1.8469754,0.4142791 1.8467731,0.41398889 1.846577,0.41369867 l -1.942e-4,-3.0021e-4 -1.941e-4,-3.0022e-4 -1.881e-4,-3.0022e-4 -1.86e-4,-3.0022e-4 -1.82e-4,-3.1022e-4 -1.82e-4,-3.1023e-4 -1.78e-4,-3.2023e-4 -1.759e-4,-3.1022e-4 -1.739e-4,-3.2023e-4 -1.719e-4,-3.2024e-4 -1.679e-4,-3.3024e-4 -1.658e-4,-3.3023e-4 -1.618e-4,-3.3024e-4 -1.618e-4,-3.3024e-4 -1.537e-4,-3.4025e-4 -1.537e-4,-3.4025e-4 -1.496e-4,-3.4024e-4 -1.476e-4,-3.5026e-4 -1.416e-4,-3.5025e-4 -1.415e-4,-3.5025e-4 -1.416e-4,-3.5026e-4 -1.355e-4,-3.5025e-4 -1.314e-4,-3.6026e-4 -1.295e-4,-3.6026e-4 -1.253e-4,-3.6027e-4 -1.214e-4,-3.7026e-4 -1.213e-4,-3.7027e-4 -1.173e-4,-3.7027e-4 -1.153e-4,-3.7027e-4 -1.092e-4,-3.7027e-4 -1.072e-4,-3.8027e-4 -1.011e-4,-3.8028e-4 -1.011e-4,-3.8027e-4 -1.011e-4,-3.8028e-4 -9.1e-5,-3.9028e-4 -9.1e-5,-3.8028e-4 -8.7e-5,-3.9028e-4 -8.49e-5,-4.0029e-4 -8.09e-5,-3.9028e-4 -7.48e-5,-3.9029e-4 -7.28e-5,-4.0029e-4 -7.08e-5,-4.0029e-4 -6.47e-5,-4.0029e-4 -6.07e-5,-4.1029e-4 -6.06e-5,-4.0029e-4 -5.67e-5,-4.103e-4 -5.05e-5,-4.103e-4 -4.86e-5,-4.0029e-4 -4.44e-5,-4.203e-4 -4.05e-5,-4.103e-4 -3.64e-5,-4.103e-4 -3.23e-5,-4.203e-4 -3.04e-5,-4.103e-4 -2.42e-5,-4.2031e-4 -2.03e-5,-4.3031e-4 -2.02e-5,-4.203e-4 -1.21e-5,-4.2031e-4 -1.22e-5,-4.203e-4 -6e-6,-4.3031e-4 0,-8.6063e-4 8.1e-6,-4.203e-4 1.01e-5,-4.2031e-4 1.21e-5,-4.3031e-4 1.62e-5,-4.1029e-4 2.02e-5,-4.2031e-4 2.63e-5,-4.203e-4 3.03e-5,-4.103e-4 3.24e-5,-4.2031e-4 3.64e-5,-4.203e-4 4.04e-5,-4.103e-4 4.45e-5,-4.103e-4 4.86e-5,-4.1029e-4 5.05e-5,-4.103e-4 5.66e-5,-4.103e-4 6.07e-5,-4.0029e-4 6.07e-5,-4.0029e-4 6.47e-5,-4.0029e-4 7.08e-5,-4.0029e-4 7.28e-5,-4.0029e-4 7.68e-5,-4.0029e-4 8.09e-5,-3.9028e-4 8.09e-5,-3.9028e-4 8.9e-5,-3.9029e-4 9.1e-5,-3.9028e-4 9.3e-5,-3.8027e-4 1.011e-4,-3.9029e-4 1.011e-4,-3.8027e-4 1.011e-4,-3.7027e-4 1.072e-4,-3.8028e-4 1.092e-4,-3.8027e-4 1.153e-4,-3.7027e-4 1.153e-4,-3.7027e-4 1.213e-4,-3.7027e-4 1.254e-4,-3.6026e-4 1.254e-4,-3.7027e-4 1.294e-4,-3.5025e-4 1.314e-4,-3.6026e-4 1.375e-4,-3.6026e-4 1.416e-4,-3.5026e-4 1.416e-4,-3.5025e-4 1.415e-4,-3.5025e-4 1.497e-4,-3.4025e-4 1.496e-4,-3.5026e-4 1.537e-4,-3.3023e-4 1.557e-4,-3.4025e-4 1.618e-4,-3.3024e-4 1.618e-4,-3.3024e-4 1.658e-4,-3.3024e-4 1.679e-4,-3.3024e-4 1.698e-4,-3.2023e-4 1.719e-4,-3.2023e-4 1.76e-4,-3.2023e-4 1.779e-4,-3.1023e-4 1.82e-4,-3.1022e-4 1.82e-4,-3.1023e-4 1.881e-4,-3.0022e-4 1.901e-4,-3.0021e-4 1.921e-4,-3.0022e-4 1.941e-4,-2.9021e-4 1.962e-4,-2.9021e-4 2.022e-4,-2.9021e-4 2.022e-4,-2.8021e-4 2.023e-4,-2.9021e-4 2.062e-4,-2.7019e-4 2.104e-4,-2.8021e-4 2.123e-4,-2.7019e-4 2.144e-4,-2.702e-4 2.184e-4,-2.6019e-4 2.184e-4,-2.6018e-4 2.224e-4,-2.6019e-4 2.225e-4,-2.6019e-4 2.265e-4,-2.4017e-4 2.285e-4,-2.5019e-4 2.305e-4,-2.4017e-4 2.326e-4,-2.4017e-4 2.325e-4,-2.4018e-4 2.366e-4,-2.4017e-4 2.387e-4,-2.2016e-4 2.426e-4,-2.3017e-4 2.427e-4,-2.2016e-4 2.427e-4,-2.2016e-4 2.487e-4,-2.1015e-4 2.488e-4,-2.1015e-4 2.527e-4,-2.0015e-4 2.548e-4,-2.0014e-4 2.548e-4,-2.0015e-4 2.569e-4,-1.9014e-4 2.568e-4,-1.9013e-4 2.629e-4,-1.8013e-4 2.629e-4,-1.9014e-4 2.629e-4,-1.7012e-4 2.629e-4,-1.7013e-4 2.71e-4,-1.7012e-4 2.709e-4,-1.6012e-4 2.73e-4,-1.6011e-4 2.71e-4,-1.6012e-4 2.751e-4,-1.5011e-4 2.75e-4,-1.5011e-4 2.791e-4,-1.3009e-4 2.79e-4,-1.401e-4 2.831e-4,-1.401e-4 2.832e-4,-1.301e-4 2.831e-4,-1.2009e-4 2.871e-4,-1.1008e-4 2.872e-4,-1.2008e-4 2.892e-4,-1.1008e-4 2.872e-4,-1.0007e-4 2.912e-4,-1.0008e-4 2.932e-4,-1.0007e-4 2.973e-4,-9.007e-5 2.952e-4,-8.005e-5 2.973e-4,-8.006e-5 2.973e-4,-8.006e-5 3.033e-4,-7.005e-5 2.973e-4,-6.004e-5 3.033e-4,-6.005e-5 3.033e-4,-6.004e-5 3.034e-4,-5.004e-5 3.033e-4,-4.003e-5 3.074e-4,-4.002e-5 3.074e-4,-4.003e-5 3.094e-4,-2.002e-5 3.114e-4,-3.002e-5 3.094e-4,-2.001e-5 3.115e-4,-2.002e-5 3.134e-4,0 6.269e-4,0 3.114e-4,1.001e-5 3.094e-4,1.001e-5 3.095e-4,2.001e-5 3.094e-4,2.001e-5 3.073e-4,3.003e-5 3.074e-4,3.002e-5 3.034e-4,4.003e-5 3.074e-4,5.003e-5 3.033e-4,5.004e-5 3.033e-4,5.004e-5 3.034e-4,6.004e-5 2.993e-4,7.005e-5 3.033e-4,7.005e-5 2.953e-4,8.006e-5 2.972e-4,8.006e-5 2.953e-4,8.005e-5 2.952e-4,9.007e-5 2.912e-4,1.0007e-4 2.912e-4,9.007e-5 2.892e-4,1.1008e-4 2.912e-4,1.1008e-4 2.872e-4,1.1008e-4 2.872e-4,1.2008e-4 2.831e-4,1.2009e-4 2.831e-4,1.301e-4 2.831e-4,1.401e-4 2.791e-4,1.401e-4 2.79e-4,1.3009e-4 2.751e-4,1.5011e-4 2.75e-4,1.5011e-4 2.73e-4,1.6012e-4 2.75e-4,1.5011e-4 2.69e-4,1.7012e-4 2.669e-4,1.7012e-4 2.629e-4,1.7013e-4 2.67e-4,1.8013e-4 2.629e-4,1.8013e-4 2.629e-4,1.8013e-4 2.568e-4,2.0014e-4 2.588e-4,1.9014e-4 2.548e-4,1.9014e-4 2.528e-4,2.1015e-4 2.508e-4,2.0014e-4 2.487e-4,2.1016e-4 2.467e-4,2.1015e-4 2.427e-4,2.2016e-4 2.427e-4,2.2016e-4 2.427e-4,2.3017e-4 2.386e-4,2.3016e-4 2.366e-4,2.3017e-4 2.346e-4,2.3017e-4 2.345e-4,2.4017e-4 2.286e-4,2.4017e-4 2.265e-4,2.5019e-4 2.265e-4,2.5018e-4 2.224e-4,2.5018e-4 2.225e-4,2.6019e-4 2.184e-4,2.7019e-4 2.163e-4,2.6019e-4 2.124e-4,2.702e-4 2.103e-4,2.7019e-4 2.083e-4,2.8021e-4 2.063e-4,2.7019e-4 2.022e-4,2.802e-4 2.022e-4,2.9021e-4 2.022e-4,2.9021e-4 1.962e-4,2.9022e-4 1.941e-4,3.0021e-4 1.921e-4,3.0022e-4 1.901e-4,3.0022e-4 1.861e-4,3.0022e-4 1.82e-4,3.1022e-4 1.82e-4,3.1023e-4 1.78e-4,3.2023e-4 1.759e-4,3.1022e-4 1.739e-4,3.2023e-4 1.719e-4,3.2024e-4 1.678e-4,3.3024e-4 1.659e-4,3.3023e-4 1.617e-4,3.3024e-4 1.618e-4,3.3024e-4 1.537e-4,3.4025e-4 1.537e-4,3.4025e-4 1.497e-4,3.4024e-4 1.476e-4,3.5026e-4 1.415e-4,3.4024e-4 1.416e-4,3.5026e-4 1.416e-4,3.5025e-4 1.334e-4,3.6026e-4 1.335e-4,3.6026e-4 1.294e-4,3.6026e-4 1.254e-4,3.6027e-4 1.213e-4,3.7026e-4 1.214e-4,3.6027e-4 1.173e-4,3.8027e-4 1.152e-4,3.7027e-4 1.092e-4,3.7027e-4 1.072e-4,3.8027e-4 1.011e-4,3.7027e-4 1.011e-4,3.8028e-4 1.012e-4,3.9028e-4 9.3e-5,3.9028e-4 8.9e-5,3.8028e-4 8.69e-5,3.9028e-4 8.5e-5,3.9028e-4 8.08e-5,3.9029e-4 7.49e-5,4.0029e-4 7.28e-5,4.0029e-4 7.08e-5,4.0029e-4 6.47e-5,4.0029e-4 6.06e-5,4.0029e-4 6.07e-5,4.1029e-4 5.66e-5,4.0029e-4 5.06e-5,4.2031e-4 4.85e-5,4.0029e-4 4.45e-5,4.203e-4 4.04e-5,4.103e-4 3.64e-5,4.103e-4 3.24e-5,4.103e-4 3.03e-5,4.3031e-4 2.43e-5,4.103e-4 2.02e-5,4.203e-4 2.03e-5,4.3031e-4 1.21e-5,4.2031e-4 1.21e-5,4.203e-4 6.1e-6,4.3031e-4 0,8.5062e-4 -8.1e-6,4.3031e-4 -1.01e-5,4.2031e-4 -1.21e-5,4.203e-4 -1.62e-5,4.203e-4 -2.02e-5,4.2031e-4 -2.63e-5,4.103e-4 -3.04e-5,4.3031e-4 -3.23e-5,4.103e-4 -3.64e-5,4.203e-4 -4.05e-5,4.103e-4 -4.45e-5,4.103e-4 -4.85e-5,4.1029e-4 -5.06e-5,4.103e-4 -5.66e-5,4.0029e-4 -6.06e-5,4.103e-4 -6.07e-5,4.0029e-4 -6.47e-5,4.0029e-4 -7.08e-5,4.0029e-4 -7.28e-5,4.0029e-4 -7.69e-5,3.9028e-4 -8.08e-5,3.9028e-4 -8.09e-5,4.0029e-4 -8.9e-5,3.9029e-4 -8.9e-5,3.8027e-4 -9.5e-5,3.9028e-4 -1.012e-4,3.8028e-4 -1.011e-4,3.8028e-4 -1.011e-4,3.8027e-4 -1.072e-4,3.8028e-4 -1.092e-4,3.7027e-4 -1.152e-4,3.7026e-4 -1.153e-4,3.8028e-4 -1.213e-4,3.7027e-4 -1.254e-4,3.6026e-4 -1.254e-4,3.6026e-4 -1.294e-4,3.6026e-4 -1.335e-4,3.6026e-4 -1.355e-4,3.6026e-4 -1.415e-4,3.5026e-4 -1.416e-4,3.5025e-4 -1.416e-4,3.5025e-4 -1.496e-4,3.4025e-4 -1.497e-4,3.4025e-4 -1.536e-4,3.4024e-4 -1.558e-4,3.4025e-4 -1.617e-4,3.3024e-4 -1.618e-4,3.3024e-4 -1.658e-4,3.3024e-4 -1.679e-4,3.2023e-4 -1.699e-4,3.3024e-4 -1.719e-4,3.1023e-4 -1.759e-4,3.2023e-4 -1.78e-4,3.2023e-4 -1.82e-4,3.0022e-4 -1.82e-4,3.1022e-4 -1.88e-4,3.1023e-4 -1.881e-4,3.0021e-4 -1.941e-4,3.0022e-4 -1.942e-4,2.9021e-4 -1.961e-4,2.9021e-4 -2.023e-4,2.9021e-4 -2.022e-4,2.8021e-4 -2.022e-4,2.802e-4 -2.063e-4,2.802e-4 -2.103e-4,2.802e-4 -2.123e-4,2.702e-4 -2.144e-4,2.6019e-4 -2.184e-4,2.702e-4 -2.184e-4,2.6018e-4 -2.225e-4,2.6019e-4 -2.224e-4,2.5018e-4 -2.265e-4,2.5018e-4 -2.285e-4,2.5019e-4 -2.306e-4,2.4017e-4 -2.325e-4,2.4017e-4 -2.326e-4,2.4018e-4 -2.366e-4,2.3017e-4 -2.426e-4,2.3016e-4 -2.387e-4,2.3017e-4 -2.426e-4,2.2016e-4 -2.427e-4,2.2016e-4 -2.488e-4,2.1015e-4 -2.507e-4,2.1015e-4 -2.508e-4,2.0015e-4 -2.548e-4,2.0014e-4 -2.548e-4,1.9014e-4 -2.568e-4,2.0015e-4 -2.568e-4,1.9013e-4 -2.629e-4,1.8013e-4 -2.629e-4,1.8013e-4 -2.629e-4,1.8013e-4 -2.629e-4,1.7013e-4 -2.71e-4,1.6011e-4 -2.71e-4,1.7013e-4 -2.73e-4,1.6011e-4 -2.71e-4,1.6012e-4 -2.75e-4,1.5011e-4 -2.771e-4,1.401e-4 -2.77e-4,1.401e-4 -2.791e-4,1.401e-4 -2.831e-4,1.301e-4 -2.831e-4,1.3009e-4 -2.831e-4,1.2009e-4 -2.872e-4,1.2009e-4 -2.871e-4,1.2008e-4 -2.892e-4,1.1008e-4 -2.872e-4,1.0007e-4 -2.912e-4,1.0008e-4 -2.932e-4,9.006e-5 -2.973e-4,9.007e-5 -2.953e-4,8.006e-5 -2.972e-4,9.006e-5 -2.993e-4,7.005e-5 -2.993e-4,7.005e-5 -2.993e-4,7.005e-5 -3.033e-4,6.005e-5 -3.034e-4,6.004e-5 -3.033e-4,4.003e-5 -3.034e-4,5.004e-5 -3.073e-4,4.002e-5 -3.074e-4,3.003e-5 -3.094e-4,3.002e-5 -3.115e-4,3.002e-5 -3.094e-4,1.001e-5 -3.114e-4,2.001e-5 -3.135e-4,1.001e-5 -3.134e-4,0 z m 0,-0.008006 2.366e-4,0 2.346e-4,-1.001e-5 2.346e-4,-1.001e-5 2.305e-4,-1e-5 2.326e-4,-2.002e-5 2.305e-4,-2.001e-5 2.306e-4,-3.003e-5 2.305e-4,-3.002e-5 2.285e-4,-3.002e-5 2.285e-4,-4.003e-5 2.285e-4,-4.003e-5 2.265e-4,-4.003e-5 2.265e-4,-5.003e-5 2.225e-4,-6.005e-5 2.224e-4,-5.003e-5 2.225e-4,-6.005e-5 2.224e-4,-7.005e-5 2.225e-4,-6.004e-5 2.184e-4,-7.005e-5 2.184e-4,-8.006e-5 2.184e-4,-8.006e-5 2.164e-4,-8.005e-5 2.143e-4,-9.007e-5 2.164e-4,-8.006e-5 2.124e-4,-1.0007e-4 2.123e-4,-9.007e-5 2.103e-4,-1.0007e-4 2.123e-4,-1.0007e-4 2.083e-4,-1.1008e-4 2.063e-4,-1.1008e-4 2.063e-4,-1.1008e-4 2.022e-4,-1.2009e-4 2.022e-4,-1.1008e-4 2.023e-4,-1.2008e-4 2.022e-4,-1.301e-4 2.022e-4,-1.3009e-4 1.962e-4,-1.301e-4 1.941e-4,-1.401e-4 1.962e-4,-1.401e-4 1.941e-4,-1.401e-4 1.901e-4,-1.401e-4 1.921e-4,-1.5011e-4 1.881e-4,-1.5011e-4 1.881e-4,-1.6012e-4 1.86e-4,-1.5011e-4 1.86e-4,-1.6011e-4 1.821e-4,-1.7012e-4 1.82e-4,-1.6012e-4 1.82e-4,-1.7012e-4 1.82e-4,-1.7013e-4 1.759e-4,-1.7012e-4 1.759e-4,-1.8013e-4 1.74e-4,-1.8013e-4 1.739e-4,-1.8013e-4 1.698e-4,-1.9014e-4 1.699e-4,-1.9014e-4 1.679e-4,-1.9014e-4 1.658e-4,-1.9013e-4 1.618e-4,-1.9014e-4 1.617e-4,-2.0015e-4 1.618e-4,-2.1015e-4 1.618e-4,-2.0014e-4 1.557e-4,-2.1016e-4 1.557e-4,-2.1015e-4 1.537e-4,-2.1015e-4 1.517e-4,-2.2016e-4 1.496e-4,-2.2016e-4 1.456e-4,-2.2016e-4 1.477e-4,-2.2016e-4 1.415e-4,-2.2016e-4 1.416e-4,-2.3016e-4 1.415e-4,-2.2016e-4 1.416e-4,-2.4018e-4 1.335e-4,-2.3017e-4 1.375e-4,-2.3016e-4 1.314e-4,-2.4018e-4 1.295e-4,-2.4017e-4 1.274e-4,-2.4017e-4 1.253e-4,-2.5019e-4 1.254e-4,-2.5018e-4 1.214e-4,-2.5018e-4 1.213e-4,-2.4017e-4 1.153e-4,-2.6019e-4 1.173e-4,-2.5018e-4 1.132e-4,-2.6019e-4 1.092e-4,-2.6019e-4 1.092e-4,-2.6019e-4 1.072e-4,-2.6019e-4 1.011e-4,-2.7019e-4 1.011e-4,-2.702e-4 1.011e-4,-2.6019e-4 9.71e-5,-2.802e-4 9.5e-5,-2.702e-4 9.31e-5,-2.7019e-4 8.89e-5,-2.802e-4 8.7e-5,-2.702e-4 8.49e-5,-2.802e-4 8.09e-5,-2.8021e-4 8.09e-5,-2.802e-4 8.09e-5,-2.9021e-4 7.28e-5,-2.802e-4 7.48e-5,-2.9021e-4 7.08e-5,-2.9021e-4 6.88e-5,-2.8021e-4 6.47e-5,-3.0021e-4 6.06e-5,-2.9021e-4 6.07e-5,-2.9021e-4 6.07e-5,-2.9021e-4 5.26e-5,-3.0022e-4 5.25e-5,-3.0022e-4 4.86e-5,-3.0022e-4 4.65e-5,-3.1022e-4 4.45e-5,-3.0022e-4 4.04e-5,-3.0022e-4 3.64e-5,-3.0022e-4 3.64e-5,-3.1022e-4 3.44e-5,-3.1022e-4 3.03e-5,-3.1023e-4 2.63e-5,-3.1022e-4 2.63e-5,-3.1023e-4 2.02e-5,-3.2023e-4 2.03e-5,-3.1023e-4 2.02e-5,-3.2023e-4 1.01e-5,-3.2023e-4 1.01e-5,-3.1023e-4 8.1e-6,-3.3023e-4 4e-6,-3.2024e-4 0,-6.4046e-4 -6e-6,-3.2023e-4 -8.1e-6,-3.2023e-4 -1.01e-5,-3.1023e-4 -1.22e-5,-3.2023e-4 -1.61e-5,-3.1023e-4 -2.03e-5,-3.2023e-4 -2.02e-5,-3.1022e-4 -2.63e-5,-3.1023e-4 -2.42e-5,-3.1022e-4 -3.04e-5,-3.2024e-4 -3.44e-5,-3.0021e-4 -3.64e-5,-3.1023e-4 -4.04e-5,-3.1022e-4 -4.04e-5,-3.0022e-4 -4.05e-5,-3.0022e-4 -4.85e-5,-3.0022e-4 -4.86e-5,-3.1022e-4 -5.25e-5,-2.9021e-4 -5.46e-5,-3.1023e-4 -6.07e-5,-2.9021e-4 -5.66e-5,-2.9021e-4 -6.47e-5,-3.0021e-4 -6.48e-5,-2.9021e-4 -6.87e-5,-2.9021e-4 -7.08e-5,-2.9021e-4 -7.28e-5,-2.9021e-4 -7.28e-5,-2.8021e-4 -7.68e-5,-2.9021e-4 -8.09e-5,-2.802e-4 -8.09e-5,-2.702e-4 -8.7e-5,-2.9021e-4 -8.69e-5,-2.7019e-4 -8.9e-5,-2.8021e-4 -9.3e-5,-2.7019e-4 -9.51e-5,-2.702e-4 -9.71e-5,-2.802e-4 L 1.880737,0.38042456 1.8806359,0.38015436 1.8805348,0.37988417 1.8804276,0.37962398 1.8803184,0.37936379 1.8802092,0.37911361 1.880096,0.37885342 1.8799807,0.37860324 1.8798654,0.37834305 1.8797441,0.37810288 1.8796228,0.3778527 1.8795014,0.37760252 1.879374,0.37735233 1.8792466,0.37711216 1.8791172,0.37687199 1.8789858,0.37664182 1.8788503,0.37640165 1.8787168,0.37617148 1.8785752,0.37594131 1.8784377,0.37571114 1.8782962,0.37548098 1.8781546,0.37526082 1.878005,0.37504066 1.8778573,0.3748205 1.8777057,0.37460034 1.877554,0.37439019 1.8774003,0.37418004 1.8772446,0.37396988 1.8770868,0.37375973 1.8769251,0.37355959 1.8767633,0.37335944 1.8766015,0.3731593 1.8764397,0.37295915 1.8762719,0.37276901 1.876104,0.37257887 1.8759342,0.37238874 1.8757643,0.3721986 l -1.739e-4,-1.8013e-4 -1.739e-4,-1.8013e-4 -1.76e-4,-1.8013e-4 -1.779e-4,-1.7013e-4 -1.82e-4,-1.7012e-4 -1.82e-4,-1.7012e-4 -1.82e-4,-1.7013e-4 -1.821e-4,-1.6011e-4 -1.86e-4,-1.6012e-4 -1.86e-4,-1.6011e-4 -1.881e-4,-1.5011e-4 -1.901e-4,-1.6012e-4 -1.941e-4,-1.401e-4 -1.922e-4,-1.5011e-4 -1.961e-4,-1.3009e-4 -1.962e-4,-1.401e-4 -1.961e-4,-1.4011e-4 -2.023e-4,-1.3009e-4 -1.961e-4,-1.3009e-4 -2.023e-4,-1.301e-4 -2.022e-4,-1.2009e-4 -2.022e-4,-1.2008e-4 -2.022e-4,-1.1008e-4 -2.083e-4,-1.1008e-4 -2.063e-4,-1.1008e-4 -2.083e-4,-1.1008e-4 -2.103e-4,-1.0007e-4 -2.083e-4,-1.0008e-4 -2.123e-4,-1.0007e-4 -2.124e-4,-9.007e-5 -2.143e-4,-9.006e-5 -2.124e-4,-8.006e-5 -2.164e-4,-8.006e-5 -2.184e-4,-9.006e-5 -2.184e-4,-7.005e-5 -2.184e-4,-7.005e-5 -2.224e-4,-7.005e-5 -2.225e-4,-6.005e-5 -2.224e-4,-6.004e-5 -2.225e-4,-6.004e-5 -2.224e-4,-4.003e-5 -2.225e-4,-5.004e-5 -2.285e-4,-5.004e-5 -2.265e-4,-4.003e-5 -2.285e-4,-4.002e-5 -2.285e-4,-3.003e-5 -2.305e-4,-3.002e-5 -2.306e-4,-3.002e-5 -2.325e-4,-3.002e-5 -2.346e-4,-1.001e-5 -2.326e-4,-1.001e-5 -2.366e-4,-2.001e-5 -2.346e-4,0 -4.732e-4,0 -2.346e-4,1.001e-5 -2.345e-4,1e-5 -2.306e-4,1.001e-5 -2.325e-4,2.002e-5 -2.306e-4,2.001e-5 -2.305e-4,3.002e-5 -2.306e-4,3.002e-5 -2.285e-4,3.003e-5 -2.285e-4,3.002e-5 -2.285e-4,5.003e-5 -2.285e-4,4.003e-5 -2.225e-4,5.004e-5 -2.265e-4,6.004e-5 -2.224e-4,5.004e-5 -2.225e-4,6.004e-5 -2.224e-4,6.005e-5 -2.225e-4,7.005e-5 -2.163e-4,7.005e-5 -2.184e-4,8.006e-5 -2.184e-4,8.005e-5 -2.164e-4,8.006e-5 -2.144e-4,8.006e-5 -2.164e-4,9.006e-5 -2.123e-4,1.0008e-4 -2.123e-4,9.006e-5 -2.104e-4,1.0008e-4 -2.123e-4,1.0007e-4 -2.083e-4,1.1008e-4 -2.063e-4,1.1008e-4 -2.062e-4,1.1008e-4 -2.023e-4,1.2008e-4 -2.022e-4,1.2009e-4 -2.022e-4,1.2009e-4 -2.022e-4,1.2009e-4 -2.023e-4,1.3009e-4 -1.961e-4,1.3009e-4 -1.942e-4,1.4011e-4 -1.961e-4,1.401e-4 -1.942e-4,1.401e-4 -1.901e-4,1.401e-4 -1.921e-4,1.5011e-4 -1.88e-4,1.5011e-4 -1.881e-4,1.6011e-4 -1.861e-4,1.6012e-4 -1.86e-4,1.5011e-4 -1.82e-4,1.7012e-4 -1.82e-4,1.6012e-4 -1.82e-4,1.7012e-4 -1.82e-4,1.7012e-4 -1.76e-4,1.7013e-4 -1.759e-4,1.8013e-4 -1.739e-4,1.8013e-4 -1.739e-4,1.8013e-4 -1.699e-4,1.9014e-4 -1.699e-4,1.9013e-4 -1.678e-4,1.9014e-4 -1.658e-4,1.9014e-4 -1.618e-4,1.9014e-4 -1.618e-4,2.1015e-4 -1.618e-4,2.0015e-4 -1.618e-4,2.0014e-4 -1.557e-4,2.1015e-4 -1.557e-4,2.1016e-4 -1.537e-4,2.1015e-4 -1.516e-4,2.2016e-4 -1.497e-4,2.2016e-4 -1.456e-4,2.2016e-4 -1.476e-4,2.2016e-4 -1.416e-4,2.2016e-4 -1.415e-4,2.3016e-4 -1.416e-4,2.3017e-4 -1.416e-4,2.3017e-4 -1.334e-4,2.3016e-4 -1.375e-4,2.3017e-4 -1.315e-4,2.4017e-4 -1.294e-4,2.4018e-4 -1.274e-4,2.4017e-4 -1.274e-4,2.5018e-4 -1.214e-4,2.5018e-4 -1.213e-4,2.5019e-4 -1.213e-4,2.5018e-4 -1.173e-4,2.5018e-4 -1.173e-4,2.5018e-4 -1.133e-4,2.6019e-4 -1.092e-4,2.6019e-4 -1.092e-4,2.6018e-4 -1.071e-4,2.6019e-4 -1.012e-4,2.702e-4 -1.011e-4,2.6019e-4 -1.011e-4,2.7019e-4 -9.7e-5,2.8021e-4 -9.51e-5,2.7019e-4 -9.3e-5,2.8021e-4 -8.9e-5,2.7019e-4 -8.7e-5,2.802e-4 -8.49e-5,2.702e-4 -8.09e-5,2.802e-4 -8.09e-5,2.8021e-4 -8.09e-5,2.9021e-4 -7.28e-5,2.802e-4 -7.48e-5,2.9021e-4 -7.08e-5,2.9021e-4 -6.87e-5,2.9021e-4 -6.47e-5,2.9021e-4 -6.07e-5,2.9021e-4 -6.07e-5,2.9021e-4 -6.06e-5,3.0022e-4 -5.26e-5,3.0022e-4 -5.06e-5,2.9021e-4 -4.85e-5,3.1022e-4 -4.65e-5,3.0022e-4 -4.45e-5,3.0022e-4 -4.05e-5,3.1022e-4 -3.64e-5,3.0022e-4 -3.64e-5,3.1022e-4 -3.43e-5,3.1023e-4 -3.04e-5,3.0022e-4 -2.63e-5,3.2023e-4 -2.62e-5,3.1022e-4 -2.03e-5,3.1023e-4 -2.02e-5,3.1022e-4 -2.02e-5,3.2024e-4 -1.01e-5,3.2023e-4 -1.01e-5,3.1022e-4 -8.1e-6,3.3024e-4 -4.1e-6,3.2023e-4 0,6.4047e-4 6.1e-6,3.2023e-4 8.1e-6,3.2023e-4 1.01e-5,3.1023e-4 1.21e-5,3.2023e-4 1.62e-5,3.2023e-4 2.02e-5,3.1023e-4 2.03e-5,3.2023e-4 2.62e-5,3.1022e-4 2.43e-5,3.1023e-4 3.03e-5,3.1022e-4 3.44e-5,3.1023e-4 3.64e-5,3.0021e-4 4.05e-5,3.1023e-4 4.04e-5,3.0022e-4 4.05e-5,3.0021e-4 4.85e-5,3.1023e-4 4.85e-5,3.0022e-4 5.26e-5,3.0021e-4 5.46e-5,2.9022e-4 6.07e-5,3.0021e-4 5.66e-5,3.0022e-4 6.47e-5,2.9021e-4 6.47e-5,2.9021e-4 6.88e-5,2.9021e-4 7.08e-5,2.9021e-4 7.28e-5,2.9021e-4 7.28e-5,2.802e-4 7.68e-5,2.9022e-4 8.09e-5,2.802e-4 8.09e-5,2.802e-4 8.69e-5,2.802e-4 8.7e-5,2.8021e-4 8.9e-5,2.7019e-4 9.3e-5,2.8021e-4 9.51e-5,2.7019e-4 9.7e-5,2.702e-4 1.011e-4,2.7019e-4 1.011e-4,2.6019e-4 1.012e-4,2.702e-4 1.071e-4,2.6019e-4 1.092e-4,2.6019e-4 1.092e-4,2.5018e-4 1.133e-4,2.6019e-4 1.153e-4,2.5018e-4 1.152e-4,2.6019e-4 1.214e-4,2.5018e-4 1.213e-4,2.4017e-4 1.213e-4,2.5018e-4 1.274e-4,2.5018e-4 1.274e-4,2.4018e-4 1.295e-4,2.4017e-4 1.314e-4,2.3017e-4 1.355e-4,2.4017e-4 1.335e-4,2.3017e-4 1.415e-4,2.3017e-4 1.375e-4,2.3016e-4 1.416e-4,2.3017e-4 1.416e-4,2.2016e-4 1.496e-4,2.2016e-4 1.476e-4,2.2016e-4 1.517e-4,2.2016e-4 1.517e-4,2.1015e-4 1.537e-4,2.1015e-4 1.557e-4,2.1015e-4 1.577e-4,2.1016e-4 1.618e-4,2.0014e-4 1.618e-4,2.0015e-4 1.618e-4,2.0014e-4 1.617e-4,2.0015e-4 1.679e-4,1.9013e-4 1.678e-4,1.9014e-4 1.699e-4,1.9014e-4 1.699e-4,1.9014e-4 1.739e-4,1.8013e-4 1.739e-4,1.8013e-4 1.759e-4,1.8013e-4 1.78e-4,1.7012e-4 1.82e-4,1.8013e-4 1.82e-4,1.6012e-4 1.82e-4,1.7012e-4 1.82e-4,1.6012e-4 1.861e-4,1.6011e-4 1.86e-4,1.6012e-4 1.881e-4,1.6012e-4 1.901e-4,1.5011e-4 1.941e-4,1.401e-4 1.921e-4,1.5011e-4 1.962e-4,1.3009e-4 1.962e-4,1.401e-4 1.961e-4,1.401e-4 2.022e-4,1.301e-4 1.982e-4,1.3009e-4 2.022e-4,1.301e-4 2.023e-4,1.2008e-4 2.022e-4,1.2009e-4 2.022e-4,1.1008e-4 2.063e-4,1.1008e-4 2.063e-4,1.1008e-4 2.083e-4,1.1008e-4 2.103e-4,1.0007e-4 2.083e-4,1.0007e-4 2.123e-4,1.0008e-4 2.123e-4,9.006e-5 2.144e-4,9.007e-5 2.123e-4,9.006e-5 2.164e-4,8.006e-5 2.184e-4,8.006e-5 2.184e-4,7.005e-5 2.184e-4,7.005e-5 2.225e-4,7.005e-5 2.224e-4,6.004e-5 2.225e-4,6.005e-5 2.224e-4,6.004e-5 2.225e-4,5.004e-5 2.265e-4,5.003e-5 2.224e-4,5.004e-5 2.306e-4,4.003e-5 2.285e-4,3.002e-5 2.285e-4,4.003e-5 2.305e-4,3.002e-5 2.306e-4,2.002e-5 2.325e-4,3.002e-5 2.346e-4,1.001e-5 2.326e-4,2.001e-5 2.366e-4,1.001e-5 2.346e-4,0 2.366e-4,0 z"
     id="path73"
     inkscape:connector-curvature="0"
     style="fill:#c69264" />
  <ellipse
     cx="1.8645307"
     cy="0.56233925"
     id="circle75"
     style="fill:#404040"
     rx="0.021233762"
     ry="0.028941097" />
  <path
     d="m 1.8645306,0.59543038 -3.134e-4,0 -3.115e-4,-1.001e-5 -3.094e-4,-2.001e-5 -3.094e-4,-1.001e-5 -3.094e-4,-2.001e-5 -3.074e-4,-3.003e-5 -3.073e-4,-4.003e-5 -3.034e-4,-4.002e-5 -3.074e-4,-4.003e-5 -3.033e-4,-5.004e-5 -3.034e-4,-6.004e-5 -3.033e-4,-6.005e-5 -2.993e-4,-6.004e-5 -3.033e-4,-7.005e-5 -2.953e-4,-8.006e-5 -2.972e-4,-8.006e-5 -2.953e-4,-9.006e-5 -2.952e-4,-8.006e-5 -2.913e-4,-1.0007e-4 -2.912e-4,-1.0008e-4 -2.891e-4,-1.0007e-4 -2.912e-4,-1.1008e-4 -2.872e-4,-1.1008e-4 -2.872e-4,-1.3009e-4 -2.831e-4,-1.2009e-4 -2.831e-4,-1.3009e-4 -2.831e-4,-1.301e-4 -2.791e-4,-1.401e-4 -2.791e-4,-1.401e-4 -2.75e-4,-1.5011e-4 -2.75e-4,-1.401e-4 -2.73e-4,-1.6012e-4 -2.751e-4,-1.6011e-4 -2.689e-4,-1.6012e-4 -2.67e-4,-1.7012e-4 L 1.8540148,0.59215801 1.8537479,0.59198788 1.853485,0.59180775 1.8532221,0.59161762 1.8529653,0.59142748 1.8527064,0.59123734 1.8524516,0.59103719 1.8521989,0.59083705 1.8519501,0.5906369 1.8516994,0.59042675 1.8514526,0.59020659 1.85121,0.58998643 1.8509673,0.58976627 1.8507246,0.58954611 1.850486,0.58931595 1.8502494,0.58908578 1.8500168,0.58884561 1.8497823,0.58860543 1.8495517,0.58836526 1.8493252,0.58811508 1.8490987,0.5878749 1.8488763,0.58761471 1.8486538,0.58735453 1.8484354,0.58709434 1.848219,0.58683415 l -2.123e-4,-2.702e-4 -2.103e-4,-2.802e-4 -2.083e-4,-2.702e-4 -2.063e-4,-2.802e-4 -2.022e-4,-2.802e-4 -2.022e-4,-2.9021e-4 -2.023e-4,-2.8021e-4 -1.961e-4,-3.0021e-4 -1.941e-4,-2.9021e-4 -1.942e-4,-3.1023e-4 -1.881e-4,-2.9021e-4 -1.86e-4,-3.1022e-4 -1.82e-4,-3.1023e-4 -1.82e-4,-3.1022e-4 -1.78e-4,-3.1023e-4 L 1.8450987,0.58213074 1.8449248,0.58182052 1.8447529,0.58149028 1.844585,0.58117004 1.8444192,0.5808398 1.8442574,0.58050957 1.8440956,0.58017933 1.843942,0.57983908 1.8437883,0.57949883 1.8436386,0.57914858 1.843491,0.57880833 1.8433494,0.57845808 1.8432079,0.57810782 1.8430663,0.57775757 1.8429308,0.57739731 1.8427994,0.57703705 1.84267,0.57668679 1.8425446,0.57632653 1.8424232,0.57595627 1.8423019,0.575586 1.8421846,0.57521573 1.8420693,0.57484546 1.8419601,0.57447519 1.841853,0.57409492 l -1.012e-4,-3.8028e-4 -1.011e-4,-3.8027e-4 -1.011e-4,-3.9029e-4 -9.3e-5,-3.8027e-4 -8.9e-5,-3.9029e-4 -8.69e-5,-3.9028e-4 -8.5e-5,-3.9028e-4 -8.09e-5,-3.9028e-4 -7.48e-5,-4.0029e-4 -7.28e-5,-3.9029e-4 -7.08e-5,-4.0029e-4 -6.47e-5,-4.1029e-4 -6.07e-5,-4.003e-4 -6.06e-5,-4.0029e-4 -5.66e-5,-4.1029e-4 -5.06e-5,-4.103e-4 -4.85e-5,-4.103e-4 -4.45e-5,-4.1029e-4 -4.05e-5,-4.103e-4 -3.64e-5,-4.2031e-4 -3.23e-5,-4.1029e-4 -3.04e-5,-4.2031e-4 -2.42e-5,-4.203e-4 -2.02e-5,-4.2031e-4 -2.03e-5,-4.203e-4 -1.21e-5,-4.2031e-4 -1.21e-5,-4.3031e-4 -6.1e-6,-4.3031e-4 0,-8.5062e-4 8.1e-6,-4.203e-4 1.01e-5,-4.2031e-4 1.21e-5,-4.3031e-4 1.62e-5,-4.203e-4 2.02e-5,-4.2031e-4 2.63e-5,-4.1029e-4 3.04e-5,-4.2031e-4 3.23e-5,-4.203e-4 3.64e-5,-4.103e-4 4.05e-5,-4.103e-4 4.44e-5,-4.203e-4 4.86e-5,-4.0029e-4 5.05e-5,-4.2031e-4 5.67e-5,-4.0029e-4 6.06e-5,-4.0029e-4 6.07e-5,-4.103e-4 6.47e-5,-4.0029e-4 7.08e-5,-3.9028e-4 7.28e-5,-4.0029e-4 7.68e-5,-4.0029e-4 8.09e-5,-3.9028e-4 8.09e-5,-3.9028e-4 8.9e-5,-3.9029e-4 9.1e-5,-3.9028e-4 9.3e-5,-3.8028e-4 1.011e-4,-3.9028e-4 1.011e-4,-3.8027e-4 1.012e-4,-3.8028e-4 1.071e-4,-3.7027e-4 1.092e-4,-3.8027e-4 1.153e-4,-3.7027e-4 1.153e-4,-3.7027e-4 1.213e-4,-3.7027e-4 1.254e-4,-3.6026e-4 1.254e-4,-3.7027e-4 1.294e-4,-3.6026e-4 1.314e-4,-3.5025e-4 1.376e-4,-3.6026e-4 1.415e-4,-3.5026e-4 1.416e-4,-3.5025e-4 1.415e-4,-3.5026e-4 1.497e-4,-3.5025e-4 1.496e-4,-3.4025e-4 1.537e-4,-3.4024e-4 1.557e-4,-3.3024e-4 1.618e-4,-3.3024e-4 1.618e-4,-3.4025e-4 1.658e-4,-3.3024e-4 1.679e-4,-3.2023e-4 1.698e-4,-3.2023e-4 1.719e-4,-3.2023e-4 1.76e-4,-3.2024e-4 1.779e-4,-3.1022e-4 1.82e-4,-3.1022e-4 1.82e-4,-3.1023e-4 1.881e-4,-3.0022e-4 1.881e-4,-3.1022e-4 1.941e-4,-2.9021e-4 1.942e-4,-3.0022e-4 1.961e-4,-2.9021e-4 2.022e-4,-2.802e-4 2.023e-4,-2.9021e-4 2.022e-4,-2.8021e-4 2.063e-4,-2.7019e-4 2.103e-4,-2.8021e-4 2.123e-4,-2.7019e-4 2.144e-4,-2.702e-4 2.184e-4,-2.7019e-4 2.184e-4,-2.6019e-4 2.224e-4,-2.6019e-4 2.225e-4,-2.5018e-4 2.265e-4,-2.5018e-4 2.265e-4,-2.5018e-4 2.305e-4,-2.4018e-4 2.326e-4,-2.4017e-4 2.325e-4,-2.4018e-4 2.366e-4,-2.3016e-4 2.387e-4,-2.3017e-4 2.426e-4,-2.2016e-4 2.427e-4,-2.2016e-4 2.427e-4,-2.2016e-4 2.487e-4,-2.1015e-4 2.508e-4,-2.1015e-4 2.507e-4,-2.1016e-4 2.548e-4,-2.0014e-4 2.548e-4,-1.9014e-4 2.569e-4,-1.9014e-4 2.568e-4,-2.0014e-4 2.629e-4,-1.8013e-4 2.629e-4,-1.8013e-4 2.629e-4,-1.8013e-4 2.629e-4,-1.7013e-4 2.71e-4,-1.6011e-4 2.709e-4,-1.7013e-4 2.73e-4,-1.6011e-4 2.71e-4,-1.5011e-4 2.751e-4,-1.5011e-4 2.77e-4,-1.5011e-4 2.771e-4,-1.401e-4 2.79e-4,-1.3009e-4 2.831e-4,-1.4011e-4 2.832e-4,-1.3009e-4 2.831e-4,-1.2009e-4 2.871e-4,-1.2008e-4 2.872e-4,-1.1008e-4 2.892e-4,-1.1008e-4 2.872e-4,-1.1008e-4 2.912e-4,-1.0008e-4 2.932e-4,-9.006e-5 2.973e-4,-9.007e-5 2.952e-4,-8.005e-5 2.973e-4,-8.006e-5 2.993e-4,-8.006e-5 2.993e-4,-7.005e-5 2.993e-4,-7.005e-5 3.033e-4,-6.005e-5 3.033e-4,-5.003e-5 3.034e-4,-5.004e-5 3.033e-4,-5.003e-5 3.074e-4,-4.003e-5 3.074e-4,-3.002e-5 3.094e-4,-3.003e-5 3.114e-4,-3.002e-5 3.094e-4,-1.001e-5 3.115e-4,-2.001e-5 3.134e-4,-1.001e-5 6.269e-4,0 3.114e-4,1.001e-5 3.094e-4,2.001e-5 3.095e-4,1.001e-5 3.094e-4,3.002e-5 3.073e-4,2.002e-5 3.074e-4,4.003e-5 3.034e-4,4.003e-5 3.074e-4,4.003e-5 3.033e-4,5.003e-5 3.033e-4,6.004e-5 3.034e-4,6.005e-5 2.993e-4,7.005e-5 2.993e-4,7.005e-5 2.993e-4,7.005e-5 2.972e-4,8.006e-5 2.953e-4,9.006e-5 2.952e-4,9.007e-5 2.912e-4,9.006e-5 2.912e-4,1.0008e-4 2.892e-4,1.1008e-4 2.912e-4,1.1008e-4 2.872e-4,1.1008e-4 2.872e-4,1.2008e-4 2.831e-4,1.2009e-4 2.831e-4,1.3009e-4 2.831e-4,1.4011e-4 2.791e-4,1.3009e-4 2.77e-4,1.401e-4 2.771e-4,1.5011e-4 2.75e-4,1.5011e-4 2.73e-4,1.5011e-4 2.75e-4,1.6011e-4 2.69e-4,1.7013e-4 2.669e-4,1.7012e-4 2.629e-4,1.7012e-4 2.67e-4,1.7013e-4 2.629e-4,1.8013e-4 2.629e-4,1.9014e-4 2.568e-4,1.9013e-4 2.588e-4,1.9014e-4 2.548e-4,2.0015e-4 2.528e-4,2.0014e-4 2.488e-4,2.1015e-4 2.507e-4,2.0015e-4 2.467e-4,2.2016e-4 2.427e-4,2.2016e-4 2.427e-4,2.2016e-4 2.427e-4,2.2016e-4 2.386e-4,2.3016e-4 2.366e-4,2.3017e-4 2.346e-4,2.4017e-4 2.345e-4,2.4018e-4 2.286e-4,2.4017e-4 2.265e-4,2.5018e-4 2.265e-4,2.5019e-4 2.224e-4,2.5018e-4 2.225e-4,2.6019e-4 2.184e-4,2.6018e-4 2.163e-4,2.702e-4 2.124e-4,2.6019e-4 2.103e-4,2.802e-4 2.083e-4,2.702e-4 2.063e-4,2.802e-4 2.022e-4,2.802e-4 2.022e-4,2.9021e-4 2.022e-4,2.9021e-4 1.962e-4,2.9021e-4 1.941e-4,3.0022e-4 1.942e-4,3.0022e-4 1.88e-4,3.0022e-4 1.861e-4,3.0021e-4 1.82e-4,3.1023e-4 1.82e-4,3.1022e-4 1.78e-4,3.1023e-4 1.759e-4,3.2023e-4 1.739e-4,3.2023e-4 1.719e-4,3.2024e-4 1.678e-4,3.3023e-4 1.659e-4,3.2024e-4 1.617e-4,3.3024e-4 1.618e-4,3.4024e-4 1.537e-4,3.3024e-4 1.537e-4,3.4025e-4 1.497e-4,3.4025e-4 1.476e-4,3.5025e-4 1.415e-4,3.5025e-4 1.416e-4,3.5026e-4 1.416e-4,3.5025e-4 1.334e-4,3.6026e-4 1.335e-4,3.5026e-4 1.294e-4,3.6026e-4 1.254e-4,3.6026e-4 1.213e-4,3.7027e-4 1.214e-4,3.7026e-4 1.173e-4,3.7027e-4 1.152e-4,3.7027e-4 1.092e-4,3.7027e-4 1.072e-4,3.8028e-4 1.011e-4,3.8027e-4 1.011e-4,3.8028e-4 1.012e-4,3.8027e-4 9.3e-5,3.9028e-4 8.9e-5,3.9029e-4 8.69e-5,3.9028e-4 8.5e-5,3.9028e-4 8.08e-5,3.9029e-4 7.49e-5,4.0029e-4 7.28e-5,3.9028e-4 7.08e-5,4.0029e-4 6.47e-5,4.103e-4 6.06e-5,4.0029e-4 6.07e-5,4.0029e-4 5.66e-5,4.1029e-4 5.06e-5,4.103e-4 4.85e-5,4.103e-4 4.45e-5,4.103e-4 4.04e-5,4.1029e-4 3.64e-5,4.2031e-4 3.24e-5,4.103e-4 3.03e-5,4.203e-4 2.43e-5,4.103e-4 2.02e-5,4.3031e-4 2.03e-5,4.203e-4 1.21e-5,4.2031e-4 1.21e-5,4.3031e-4 6.1e-6,4.203e-4 0,8.6063e-4 -8.1e-6,4.203e-4 -1.01e-5,4.2031e-4 -1.21e-5,4.3031e-4 -1.62e-5,4.203e-4 -2.02e-5,4.103e-4 -2.63e-5,4.2031e-4 -3.04e-5,4.203e-4 -3.23e-5,4.103e-4 -3.64e-5,4.203e-4 -4.05e-5,4.103e-4 -4.45e-5,4.103e-4 -4.85e-5,4.203e-4 -5.06e-5,4.0029e-4 -5.66e-5,4.103e-4 -6.06e-5,4.0029e-4 -6.07e-5,4.0029e-4 -6.47e-5,4.103e-4 -7.08e-5,3.9028e-4 -7.28e-5,4.0029e-4 -7.69e-5,4.0029e-4 -8.08e-5,3.9028e-4 -8.09e-5,3.9029e-4 -8.9e-5,3.9028e-4 -8.9e-5,3.9028e-4 -9.5e-5,3.8028e-4 -1.012e-4,3.9028e-4 -1.011e-4,3.8028e-4 -1.011e-4,3.7026e-4 -1.072e-4,3.8028e-4 -1.092e-4,3.8027e-4 -1.152e-4,3.7027e-4 -1.153e-4,3.7027e-4 -1.213e-4,3.7027e-4 -1.254e-4,3.6026e-4 -1.254e-4,3.7027e-4 -1.294e-4,3.5025e-4 -1.335e-4,3.6026e-4 -1.355e-4,3.6027e-4 -1.415e-4,3.5025e-4 -1.416e-4,3.5025e-4 -1.416e-4,3.5026e-4 -1.496e-4,3.4024e-4 -1.497e-4,3.5026e-4 -1.536e-4,3.3024e-4 -1.558e-4,3.4024e-4 -1.617e-4,3.3024e-4 -1.618e-4,3.3024e-4 -1.658e-4,3.3024e-4 -1.679e-4,3.3024e-4 -1.699e-4,3.2023e-4 -1.719e-4,3.2023e-4 -1.759e-4,3.2024e-4 -1.78e-4,3.1022e-4 -1.82e-4,3.1023e-4 -1.82e-4,3.1022e-4 -1.88e-4,3.0022e-4 -1.881e-4,3.0022e-4 -1.941e-4,3.0021e-4 -1.942e-4,2.9021e-4 -1.961e-4,2.9021e-4 -2.023e-4,2.9021e-4 -2.022e-4,2.8021e-4 -2.022e-4,2.802e-4 -2.063e-4,2.802e-4 -2.103e-4,2.8021e-4 -2.123e-4,2.7019e-4 -2.144e-4,2.702e-4 -2.184e-4,2.6019e-4 -2.184e-4,2.6019e-4 -2.225e-4,2.6018e-4 -2.224e-4,2.6019e-4 -2.265e-4,2.4018e-4 -2.285e-4,2.5018e-4 -2.306e-4,2.4017e-4 -2.325e-4,2.4018e-4 -2.326e-4,2.4017e-4 -2.366e-4,2.4017e-4 -2.426e-4,2.2016e-4 -2.387e-4,2.3017e-4 -2.426e-4,2.2016e-4 -2.427e-4,2.2016e-4 -2.488e-4,2.1015e-4 -2.507e-4,2.1015e-4 -2.508e-4,2.0015e-4 -2.548e-4,2.0014e-4 -2.548e-4,2.0015e-4 -2.568e-4,1.9014e-4 -2.568e-4,1.9014e-4 -2.629e-4,1.8013e-4 -2.629e-4,1.9013e-4 -2.629e-4,1.7013e-4 -2.629e-4,1.7012e-4 -2.71e-4,1.7012e-4 -2.71e-4,1.6012e-4 -2.73e-4,1.6012e-4 -2.71e-4,1.6011e-4 -2.75e-4,1.5011e-4 -2.75e-4,1.401e-4 -2.791e-4,1.401e-4 -2.791e-4,1.4011e-4 -2.831e-4,1.401e-4 -2.831e-4,1.2008e-4 -2.831e-4,1.301e-4 -2.872e-4,1.1008e-4 -2.871e-4,1.2008e-4 -2.892e-4,1.1008e-4 -2.872e-4,1.0008e-4 -2.912e-4,1.0007e-4 -2.932e-4,1.0007e-4 -2.973e-4,9.007e-5 -2.953e-4,8.006e-5 -2.972e-4,8.005e-5 -2.973e-4,8.006e-5 -3.033e-4,7.005e-5 -2.973e-4,6.005e-5 -3.033e-4,6.004e-5 -3.034e-4,6.004e-5 -3.033e-4,5.004e-5 -3.034e-4,4.003e-5 -3.073e-4,4.003e-5 -3.074e-4,4.003e-5 -3.094e-4,2.001e-5 -3.115e-4,3.002e-5 -3.094e-4,2.002e-5 -3.114e-4,1e-5 -3.135e-4,1.001e-5 -3.134e-4,0 z m 0,-0.008006 2.366e-4,0 2.346e-4,-1.001e-5 2.346e-4,-1.001e-5 2.305e-4,-2.001e-5 2.326e-4,-1.001e-5 2.305e-4,-3.002e-5 2.306e-4,-2.002e-5 2.305e-4,-3.002e-5 2.285e-4,-4.003e-5 2.285e-4,-3.002e-5 2.285e-4,-4.003e-5 2.265e-4,-5.003e-5 2.265e-4,-5.004e-5 2.225e-4,-5.004e-5 2.224e-4,-6.004e-5 2.265e-4,-5.004e-5 2.225e-4,-7.005e-5 2.184e-4,-6.004e-5 2.184e-4,-8.006e-5 2.184e-4,-7.005e-5 2.184e-4,-8.006e-5 2.164e-4,-8.006e-5 2.143e-4,-9.006e-5 2.164e-4,-9.007e-5 2.124e-4,-9.006e-5 2.123e-4,-1.0007e-4 2.103e-4,-9.007e-5 2.103e-4,-1.1008e-4 2.083e-4,-1.0007e-4 2.083e-4,-1.1008e-4 2.063e-4,-1.1008e-4 2.022e-4,-1.2009e-4 2.022e-4,-1.2008e-4 2.023e-4,-1.2009e-4 2.022e-4,-1.301e-4 2.022e-4,-1.3009e-4 1.962e-4,-1.3009e-4 1.941e-4,-1.4011e-4 1.962e-4,-1.3009e-4 1.941e-4,-1.401e-4 1.901e-4,-1.5011e-4 1.921e-4,-1.401e-4 1.881e-4,-1.6012e-4 1.881e-4,-1.5011e-4 1.86e-4,-1.6011e-4 1.86e-4,-1.6012e-4 1.821e-4,-1.6012e-4 1.82e-4,-1.7012e-4 1.82e-4,-1.6011e-4 1.82e-4,-1.8013e-4 1.759e-4,-1.7013e-4 1.759e-4,-1.8013e-4 1.74e-4,-1.8013e-4 1.739e-4,-1.8013e-4 1.698e-4,-1.8013e-4 1.699e-4,-1.9014e-4 1.679e-4,-1.9014e-4 1.658e-4,-1.9013e-4 1.618e-4,-2.0015e-4 1.617e-4,-2.0014e-4 1.618e-4,-2.0015e-4 1.618e-4,-2.1015e-4 1.557e-4,-2.1015e-4 1.557e-4,-2.0015e-4 1.537e-4,-2.2016e-4 1.517e-4,-2.1015e-4 1.496e-4,-2.2016e-4 1.456e-4,-2.2016e-4 1.477e-4,-2.2016e-4 1.415e-4,-2.2016e-4 1.416e-4,-2.3017e-4 1.415e-4,-2.3016e-4 1.416e-4,-2.3017e-4 1.335e-4,-2.3017e-4 1.375e-4,-2.4017e-4 1.314e-4,-2.4017e-4 1.295e-4,-2.4018e-4 1.274e-4,-2.4017e-4 1.253e-4,-2.5018e-4 1.254e-4,-2.4018e-4 1.214e-4,-2.5018e-4 1.213e-4,-2.5018e-4 1.153e-4,-2.5018e-4 1.173e-4,-2.6019e-4 1.132e-4,-2.6019e-4 1.092e-4,-2.5018e-4 1.092e-4,-2.702e-4 1.072e-4,-2.6018e-4 1.011e-4,-2.702e-4 1.011e-4,-2.6019e-4 1.011e-4,-2.7019e-4 9.71e-5,-2.702e-4 9.5e-5,-2.702e-4 9.31e-5,-2.802e-4 8.89e-5,-2.802e-4 8.7e-5,-2.702e-4 8.49e-5,-2.802e-4 8.09e-5,-2.802e-4 8.09e-5,-2.8021e-4 8.09e-5,-2.802e-4 7.28e-5,-2.9021e-4 7.48e-5,-2.802e-4 7.08e-5,-2.9021e-4 6.88e-5,-2.9021e-4 6.47e-5,-2.9021e-4 6.06e-5,-2.9021e-4 6.07e-5,-3.0022e-4 6.07e-5,-2.9021e-4 5.26e-5,-3.0022e-4 5.25e-5,-3.0022e-4 4.86e-5,-3.0022e-4 4.65e-5,-3.0021e-4 4.45e-5,-3.1023e-4 4.04e-5,-3.0022e-4 3.64e-5,-3.0021e-4 3.64e-5,-3.1023e-4 3.44e-5,-3.0022e-4 3.03e-5,-3.2023e-4 2.63e-5,-3.1022e-4 2.63e-5,-3.1023e-4 2.02e-5,-3.1022e-4 2.03e-5,-3.2023e-4 2.02e-5,-3.1023e-4 1.01e-5,-3.2023e-4 1.01e-5,-3.2023e-4 8.1e-6,-3.2024e-4 4e-6,-3.2023e-4 0,-6.5047e-4 -6e-6,-3.2023e-4 -8.1e-6,-3.2023e-4 -1.01e-5,-3.1023e-4 -1.22e-5,-3.2023e-4 -1.61e-5,-3.1022e-4 -2.03e-5,-3.1023e-4 -2.02e-5,-3.2023e-4 -2.63e-5,-3.1023e-4 -2.42e-5,-3.1022e-4 -3.04e-5,-3.1023e-4 -3.44e-5,-3.1022e-4 -3.64e-5,-3.1023e-4 -4.04e-5,-3.0021e-4 -4.04e-5,-3.0022e-4 -4.05e-5,-3.1023e-4 -4.85e-5,-3.0021e-4 -4.86e-5,-3.0022e-4 -5.25e-5,-3.0022e-4 -5.46e-5,-3.0022e-4 -6.07e-5,-3.0021e-4 -5.66e-5,-2.9021e-4 -6.47e-5,-2.9021e-4 -6.48e-5,-3.0022e-4 -6.87e-5,-2.9021e-4 -7.08e-5,-2.9021e-4 -7.28e-5,-2.8021e-4 -7.28e-5,-2.9021e-4 -7.68e-5,-2.802e-4 -8.09e-5,-2.9021e-4 -8.09e-5,-2.7019e-4 -8.7e-5,-2.8021e-4 -8.69e-5,-2.802e-4 -8.9e-5,-2.802e-4 -9.3e-5,-2.702e-4 -9.51e-5,-2.702e-4 -9.71e-5,-2.802e-4 L 1.880737,0.5513084 1.8806359,0.55103821 1.8805348,0.55077802 1.8804276,0.55051783 1.8803184,0.55025764 1.8802092,0.54999745 1.880096,0.54973726 1.8799807,0.54948708 1.8798654,0.5492369 1.8797441,0.54898672 1.8796228,0.54873654 1.8795014,0.54848636 1.879374,0.54824618 1.8792466,0.54800601 1.8791172,0.54776584 1.8789858,0.54752566 1.8788503,0.54728549 1.8787168,0.54705532 1.8785752,0.54682515 1.8784377,0.54659499 1.8782962,0.54637483 1.8781546,0.54615467 1.878005,0.54593451 1.8778573,0.54571435 1.8777057,0.54548418 1.877554,0.54527403 1.8774003,0.54506388 1.8772446,0.54485372 1.8770868,0.54464357 1.8769251,0.54444343 1.8767633,0.54424328 1.8766015,0.54404314 1.8764397,0.543853 1.8762719,0.54365285 1.876104,0.54346272 l -1.698e-4,-1.9014e-4 -1.699e-4,-1.8013e-4 -1.739e-4,-1.9014e-4 -1.739e-4,-1.8013e-4 -1.76e-4,-1.7012e-4 -1.779e-4,-1.8013e-4 -1.82e-4,-1.7013e-4 -1.82e-4,-1.7012e-4 -1.82e-4,-1.6012e-4 -1.821e-4,-1.7012e-4 -1.86e-4,-1.6012e-4 -1.86e-4,-1.6011e-4 -1.881e-4,-1.5011e-4 -1.901e-4,-1.5011e-4 -1.941e-4,-1.5011e-4 -1.922e-4,-1.401e-4 -1.961e-4,-1.401e-4 -1.962e-4,-1.401e-4 -1.961e-4,-1.301e-4 -2.023e-4,-1.401e-4 -1.981e-4,-1.3009e-4 -2.023e-4,-1.2009e-4 -2.022e-4,-1.2009e-4 -2.022e-4,-1.2008e-4 -2.023e-4,-1.2009e-4 -2.062e-4,-1.1008e-4 -2.063e-4,-1.1008e-4 -2.083e-4,-1.1008e-4 -2.103e-4,-1.0007e-4 -2.083e-4,-1.0008e-4 -2.123e-4,-1.0007e-4 -2.124e-4,-9.006e-5 -2.143e-4,-9.007e-5 -2.124e-4,-8.006e-5 -2.164e-4,-8.005e-5 -2.184e-4,-9.007e-5 -2.184e-4,-7.005e-5 -2.184e-4,-7.005e-5 -2.224e-4,-7.005e-5 -2.225e-4,-6.005e-5 -2.224e-4,-6.004e-5 -2.225e-4,-5.004e-5 -2.224e-4,-5.003e-5 -2.265e-4,-5.004e-5 -2.225e-4,-5.003e-5 -2.305e-4,-4.003e-5 -2.285e-4,-4.003e-5 -2.285e-4,-3.002e-5 -2.306e-4,-3.003e-5 -2.305e-4,-3.002e-5 -2.326e-4,-3.002e-5 -2.345e-4,-1.001e-5 -2.326e-4,-1e-5 -2.366e-4,-1.001e-5 -2.346e-4,-1.001e-5 -4.732e-4,0 -2.346e-4,1.001e-5 -2.346e-4,1.001e-5 -2.305e-4,1e-5 -2.346e-4,2.002e-5 -2.305e-4,2.001e-5 -2.306e-4,3.002e-5 -2.305e-4,3.003e-5 -2.285e-4,3.002e-5 -2.285e-4,4.003e-5 -2.285e-4,4.003e-5 -2.265e-4,4.003e-5 -2.265e-4,5.003e-5 -2.225e-4,6.004e-5 -2.224e-4,5.004e-5 -2.225e-4,6.004e-5 -2.224e-4,6.005e-5 -2.225e-4,7.005e-5 -2.184e-4,7.005e-5 -2.184e-4,8.006e-5 -2.184e-4,8.006e-5 -2.164e-4,8.005e-5 -2.143e-4,8.006e-5 -2.164e-4,9.007e-5 -2.124e-4,1.0007e-4 -2.123e-4,9.006e-5 -2.103e-4,1.0008e-4 -2.123e-4,1.0007e-4 -2.083e-4,1.1008e-4 -2.063e-4,1.1008e-4 -2.063e-4,1.1008e-4 -2.022e-4,1.1008e-4 -2.022e-4,1.2009e-4 -2.023e-4,1.2008e-4 -2.022e-4,1.301e-4 -2.022e-4,1.3009e-4 -1.962e-4,1.301e-4 -1.941e-4,1.401e-4 -1.962e-4,1.401e-4 -1.941e-4,1.401e-4 -1.901e-4,1.401e-4 -1.921e-4,1.5011e-4 -1.881e-4,1.5011e-4 -1.881e-4,1.6012e-4 -1.86e-4,1.501e-4 -1.86e-4,1.6012e-4 -1.821e-4,1.7012e-4 -1.82e-4,1.6012e-4 -1.82e-4,1.7012e-4 -1.82e-4,1.7013e-4 -1.759e-4,1.7012e-4 -1.759e-4,1.8013e-4 -1.74e-4,1.8013e-4 -1.739e-4,1.8013e-4 -1.698e-4,1.8013e-4 -1.699e-4,2.0015e-4 -1.679e-4,1.8013e-4 -1.658e-4,2.0014e-4 -1.618e-4,2.0015e-4 -1.617e-4,1.9014e-4 -1.618e-4,2.1015e-4 -1.618e-4,2.0014e-4 -1.557e-4,2.1015e-4 -1.557e-4,2.1016e-4 -1.537e-4,2.1015e-4 -1.517e-4,2.1015e-4 -1.496e-4,2.3017e-4 -1.456e-4,2.2016e-4 -1.477e-4,2.2016e-4 -1.415e-4,2.2016e-4 -1.416e-4,2.2016e-4 -1.415e-4,2.3016e-4 -1.416e-4,2.3017e-4 -1.335e-4,2.4017e-4 -1.375e-4,2.3017e-4 -1.314e-4,2.4018e-4 -1.295e-4,2.4017e-4 -1.274e-4,2.4017e-4 -1.274e-4,2.5018e-4 -1.213e-4,2.5019e-4 -1.213e-4,2.5018e-4 -1.214e-4,2.4017e-4 -1.173e-4,2.6019e-4 -1.173e-4,2.5018e-4 -1.132e-4,2.6019e-4 -1.092e-4,2.6019e-4 -1.092e-4,2.6019e-4 -1.072e-4,2.6019e-4 -1.011e-4,2.7019e-4 -1.011e-4,2.6019e-4 -1.011e-4,2.702e-4 -9.71e-5,2.802e-4 -9.5e-5,2.7019e-4 -9.31e-5,2.702e-4 -8.89e-5,2.802e-4 -8.7e-5,2.702e-4 -8.49e-5,2.802e-4 -8.09e-5,2.8021e-4 -8.09e-5,2.802e-4 -8.09e-5,2.9021e-4 -7.28e-5,2.802e-4 -7.48e-5,2.9021e-4 -7.08e-5,2.8021e-4 -6.88e-5,2.9021e-4 -6.47e-5,3.0021e-4 -6.06e-5,2.9021e-4 -6.07e-5,2.9021e-4 -6.07e-5,3.0022e-4 -5.26e-5,2.9021e-4 -5.25e-5,3.0022e-4 -4.86e-5,3.1022e-4 -4.65e-5,3.0022e-4 -4.45e-5,3.0022e-4 -4.04e-5,3.0022e-4 -3.64e-5,3.1022e-4 -3.64e-5,3.1023e-4 -3.44e-5,3.0021e-4 -3.03e-5,3.1023e-4 -2.63e-5,3.1022e-4 -2.63e-5,3.1023e-4 -2.02e-5,3.2023e-4 -2.03e-5,3.1023e-4 -2.02e-5,3.2023e-4 -1.01e-5,3.2023e-4 -1.01e-5,3.1022e-4 -8.1e-6,3.3024e-4 -4e-6,3.1023e-4 0,6.5047e-4 6e-6,3.2023e-4 8.1e-6,3.2023e-4 1.01e-5,3.1023e-4 1.22e-5,3.2023e-4 1.61e-5,3.2023e-4 2.03e-5,3.1023e-4 2.02e-5,3.1022e-4 2.63e-5,3.2023e-4 2.42e-5,3.1023e-4 3.04e-5,3.0022e-4 3.44e-5,3.1022e-4 3.64e-5,3.1023e-4 4.04e-5,3.0021e-4 4.04e-5,3.1023e-4 4.05e-5,3.0022e-4 4.85e-5,3.0021e-4 4.86e-5,3.1023e-4 5.25e-5,2.9021e-4 5.46e-5,3.0022e-4 6.07e-5,3.0021e-4 5.66e-5,2.9022e-4 6.47e-5,3.0021e-4 6.48e-5,2.9021e-4 6.87e-5,2.9021e-4 7.08e-5,2.9021e-4 7.28e-5,2.9021e-4 7.28e-5,2.8021e-4 7.68e-5,2.9021e-4 8.09e-5,2.802e-4 8.09e-5,2.702e-4 8.7e-5,2.9021e-4 8.69e-5,2.7019e-4 8.9e-5,2.8021e-4 9.3e-5,2.7019e-4 9.51e-5,2.702e-4 9.71e-5,2.802e-4 1.011e-4,2.702e-4 1.011e-4,2.6018e-4 1.011e-4,2.702e-4 1.072e-4,2.5018e-4 1.092e-4,2.702e-4 1.092e-4,2.5018e-4 1.132e-4,2.6019e-4 1.153e-4,2.5018e-4 1.153e-4,2.6019e-4 1.213e-4,2.4017e-4 1.213e-4,2.5018e-4 1.214e-4,2.5018e-4 1.274e-4,2.5019e-4 1.274e-4,2.4017e-4 1.294e-4,2.4017e-4 1.314e-4,2.3017e-4 1.355e-4,2.4017e-4 1.335e-4,2.3017e-4 1.416e-4,2.3017e-4 1.375e-4,2.3016e-4 1.415e-4,2.3017e-4 1.416e-4,2.2016e-4 1.496e-4,2.2016e-4 1.477e-4,2.2016e-4 1.516e-4,2.2016e-4 1.517e-4,2.1015e-4 1.537e-4,2.1015e-4 1.557e-4,2.1016e-4 1.578e-4,2.1015e-4 1.617e-4,2.0014e-4 1.618e-4,2.0015e-4 1.618e-4,2.0014e-4 1.618e-4,2.0015e-4 1.678e-4,1.9014e-4 1.679e-4,1.9013e-4 1.698e-4,1.9014e-4 1.699e-4,1.8013e-4 1.739e-4,1.9014e-4 1.739e-4,1.8013e-4 1.76e-4,1.8013e-4 1.779e-4,1.7013e-4 1.82e-4,1.7012e-4 1.82e-4,1.7012e-4 1.82e-4,1.6012e-4 1.821e-4,1.7012e-4 1.86e-4,1.6012e-4 1.86e-4,1.6011e-4 1.881e-4,1.5011e-4 1.901e-4,1.6012e-4 1.941e-4,1.401e-4 1.922e-4,1.401e-4 1.961e-4,1.401e-4 1.962e-4,1.401e-4 1.961e-4,1.4011e-4 2.023e-4,1.3009e-4 1.982e-4,1.3009e-4 2.022e-4,1.301e-4 2.022e-4,1.2009e-4 2.022e-4,1.2008e-4 2.023e-4,1.1008e-4 2.062e-4,1.1008e-4 2.083e-4,1.1008e-4 2.083e-4,1.1008e-4 2.083e-4,1.0007e-4 2.083e-4,1.0008e-4 2.123e-4,1.0007e-4 2.124e-4,9.006e-5 2.143e-4,9.007e-5 2.124e-4,8.006e-5 2.164e-4,8.006e-5 2.184e-4,9.006e-5 2.184e-4,7.005e-5 2.184e-4,7.005e-5 2.224e-4,7.005e-5 2.184e-4,6.005e-5 2.225e-4,6.004e-5 2.224e-4,5.004e-5 2.265e-4,5.003e-5 2.265e-4,5.004e-5 2.225e-4,5.004e-5 2.305e-4,4.002e-5 2.285e-4,4.003e-5 2.285e-4,3.003e-5 2.306e-4,3.002e-5 2.305e-4,3.002e-5 2.305e-4,3.002e-5 2.346e-4,1.001e-5 2.326e-4,10e-6 2.366e-4,1.001e-5 2.346e-4,1.001e-5 2.366e-4,0 z"
     id="path77"
     inkscape:connector-curvature="0"
     style="fill:#c69264" />
  <path
     d="m 0.66229521,0.32118163 0.16582557,0 0,0.29492373 -0.16582557,0 z"
     id="path79"
     inkscape:connector-curvature="0"
     style="fill:#737373" />
  <path
     d="m 1.0327192,0.86788783 -0.20055389,-0.009007 1.4965e-4,-0.76073132 0.20040624,-0.01210877 0.1007613,0.22212097 0,0.31121554 -0.1007633,0.24872025 z"
     id="path81"
     inkscape:connector-curvature="0"
     style="fill:#a6a6a6" />
  <clipPath
     id="d">
    <path
       d="M 512.173,315.35 413,312 413.074,36 512.174,31.616 562,112.2 l 0,112.914 -49.827,90.235 z"
       id="path84"
       inkscape:connector-curvature="0" />
  </clipPath>
  <g
     clip-path="url(#d)"
     id="g86"
     transform="matrix(0.00202226,0,0,0.00250032,-0.01865435,0.02969523)">
    <text
       x="505.091"
       y="154.46899"
       font-size="106.659"
       font-weight="700"
       transform="matrix(0,1,-1,0,596.624,-387.294)"
       id="text88"
       style="font-weight:700;font-size:106.65899658px;font-family:Menlo;fill:#666666">7<tspan
   x="564.87598"
   y="154.46899"
   id="tspan90">3</tspan>
</text>
    <text
       x="508.89999"
       y="150.673"
       font-size="106.659"
       font-weight="700"
       transform="matrix(0,1,-1,0,596.637,-394.9)"
       id="text92"
       style="font-weight:700;font-size:106.65899658px;font-family:Menlo;fill:#f2f2f2">7<tspan
   x="568.685"
   y="150.673"
   id="tspan94">3</tspan>
</text>
  </g>
  <path
     d="m 1.0389983,0.88089726 -0.20683299,-0.008006 1.4965e-4,-0.7883013 0.20640224,-0.01130819 0.1048766,0.23117754 0,0.31869096 -0.1045955,0.2581771 z m -0.20683299,-0.0222161 0.20055389,0.009007 0.1007633,-0.24872025 0,-0.31121555 L 1.0327192,0.08563092 0.83231293,0.09773969 c 0,0.27930242 -1.4762e-4,0.4814289 -1.4762e-4,0.76073132 z"
     id="path96"
     inkscape:connector-curvature="0"
     style="fill:#e6e6e6;fill-rule:nonzero" />
  <g
     id="g98"
     transform="matrix(0.00202579,0,0,0.00232325,-0.00440601,0.07532763)">
    <path
       d="m 411.147,149.23 c 11.726,11.727 11.726,30.738 0,42.464 -11.726,11.725 -30.737,11.725 -42.463,0 -11.725,-11.726 -11.725,-30.737 0,-42.463 11.726,-11.724 30.737,-11.724 42.463,0 z"
       id="path100"
       inkscape:connector-curvature="0"
       style="fill:#b3b3b3;stroke:#cccccc;stroke-width:2;stroke-linecap:butt;stroke-linejoin:miter" />
    <path
       d="m 426.684,206.694 c 1.53,-1.53 1.53,-4.01 0,-5.538 l -62.462,-62.462 c -1.53,-1.53 -4.008,-1.53 -5.538,0 l -5.537,5.537 c -1.53,1.53 -1.53,4.01 0,5.54 l 62.462,62.46 c 1.528,1.53 4.008,1.53 5.537,0 l 5.537,-5.536 z"
       id="path102"
       inkscape:connector-curvature="0"
       style="fill:#808080" />
    <path
       d="m 426.684,201.694 c 1.53,-1.53 1.53,-4.01 0,-5.538 l -62.462,-62.462 c -1.53,-1.53 -4.008,-1.53 -5.538,0 l -5.537,5.537 c -1.53,1.53 -1.53,4.01 0,5.54 l 62.462,62.46 c 1.528,1.53 4.008,1.53 5.537,0 l 5.537,-5.536 z"
       id="path104"
       inkscape:connector-curvature="0"
       style="fill:#f2f2f2;stroke:#cccccc;stroke-width:2;stroke-linecap:butt;stroke-linejoin:miter" />
  </g>
  <ellipse
     cx="0.58244818"
     cy="0.47472081"
     rx="0.09400288"
     ry="0.31341001"
     id="ellipse106"
     style="fill:#333333" />
  <clipPath
     id="e">
    <ellipse
       cx="289.51599"
       cy="172.707"
       rx="46.484001"
       ry="113.707"
       id="ellipse109" />
  </clipPath>
  <g
     clip-path="url(#e)"
     id="g111"
     style="fill:#4d4d4d"
     transform="matrix(0.00202226,0,0,0.0027563,-0.00302935,-0.00131209)">
    <path
       d="m 369.347,167.962 -110.31,-110.31 -18.384,18.386 110.31,110.31 18.384,-18.386 z m -20,50 -110.31,-110.31 -18.384,18.386 110.31,110.31 18.384,-18.386 z m -10,60 -110.31,-110.31 -18.384,18.386 110.31,110.31 18.384,-18.386 z"
       id="path113"
       inkscape:connector-curvature="0" />
  </g>
  <ellipse
     cx="0.58244818"
     cy="0.47472081"
     rx="0.09400288"
     ry="0.31341001"
     id="ellipse115"
     style="fill:none;stroke:#4d4d4d;stroke-width:0.02360923" />
  <g
     id="g117"
     transform="matrix(0.00203172,0,0,0.00217057,-0.00646926,0.21112991)">
    <path
       d="m 347.41,350.742 c -19.263,-9.002 -27.58,-31.916 -18.578,-51.18 9.002,-19.263 31.916,-27.58 51.18,-18.578 19.262,9.002 27.58,31.916 18.578,51.18 -9.003,19.262 -31.917,27.58 -51.18,18.578 z"
       id="path119"
       inkscape:connector-curvature="0"
       style="fill:#f2f2f2;stroke:#a6a6a6;stroke-width:4" />
    <path
       d="m 350.818,361.165 4.53,2.117 16.935,-36.238 -4.53,-2.117 -16.935,36.238 z m -18.118,-8.468 4.53,2.117 16.934,-36.238 -4.53,-2.117 -16.935,36.237 z"
       id="path121"
       inkscape:connector-curvature="0"
       style="fill:#737373" />
  </g>
  <g
     id="g123"
     transform="matrix(0.00203321,0,0,0.00208622,-0.00701999,-7.8433727e-4)">
    <path
       d="m 354.57,11.176 c 20.54,-5.504 41.65,6.685 47.153,27.223 5.504,20.538 -6.685,41.65 -27.223,47.152 -20.54,5.503 -41.65,-6.685 -47.153,-27.224 -5.503,-20.538 6.685,-41.65 27.224,-47.152 z"
       id="path125"
       inkscape:connector-curvature="0"
       style="fill:#f2f2f2;stroke:#a6a6a6;stroke-width:4" />
    <path
       d="m 345.256,5.39 -4.83,1.293 10.354,38.637 4.83,-1.294 L 345.255,5.39 Z m 19.318,-5.177 -4.83,1.294 10.353,38.637 4.83,-1.294 -10.353,-38.637 z"
       id="path127"
       inkscape:connector-curvature="0"
       style="fill:#737373" />
  </g>
</svg>
