<?xml version="1.0" standalone="no"?>
<!DOCTYPE svg PUBLIC "-//W3C//DTD SVG 20010904//EN"
 "http://www.w3.org/TR/2001/REC-SVG-20010904/DTD/svg10.dtd">
<svg version="1.0" xmlns="http://www.w3.org/2000/svg"
 width="236.000000pt" height="236.000000pt" viewBox="0 0 236.000000 236.000000"
 preserveAspectRatio="xMidYMid meet">
<g transform="translate(0.000000,236.000000) scale(0.100000,-0.100000)"
fill="#000000" stroke="none">
<path d="M802 2314 c-59 -29 -95 -71 -118 -137 -14 -43 -17 -45 -40 -37 -77
30 -140 -85 -79 -145 13 -14 31 -25 40 -25 13 0 14 -5 8 -22 -14 -41 -9 -121
12 -163 24 -48 89 -85 149 -85 22 0 55 -5 73 -12 58 -21 40 -37 -59 -54 -211
-37 -338 -181 -378 -430 -7 -40 -19 -77 -30 -89 -54 -60 -76 -140 -48 -177 26
-33 82 -58 131 -58 58 0 94 19 127 67 l24 35 -39 74 c-21 41 -42 74 -47 74
-28 0 25 180 74 255 39 58 103 110 158 126 22 7 42 10 44 8 3 -2 -3 -36 -11
-74 -10 -44 -17 -120 -17 -205 -1 -158 18 -230 82 -315 l38 -50 -32 -85 c-18
-47 -38 -120 -44 -162 -13 -77 -12 -77 19 -145 36 -76 101 -144 175 -184 28
-15 46 -31 46 -42 0 -37 -28 -83 -73 -120 -26 -21 -47 -46 -47 -56 0 -36 36
-54 119 -59 l79 -4 29 42 c57 85 64 103 59 146 -8 65 -35 111 -75 130 -57 27
-167 143 -181 189 -10 35 -9 48 10 97 11 31 38 76 59 100 l38 43 94 6 c111 7
167 28 234 90 49 45 80 96 100 164 11 35 16 40 46 43 19 2 58 -1 87 -8 75 -16
87 -43 86 -180 -1 -98 -3 -109 -32 -164 -41 -74 -40 -114 1 -191 32 -60 33
-60 87 -67 57 -7 112 -2 143 14 32 16 19 50 -42 108 -81 77 -89 108 -55 215
34 104 36 205 4 289 -19 50 -31 64 -85 104 l-63 45 28 31 c72 76 118 225 130
414 6 108 10 126 29 145 46 46 168 19 235 -52 23 -24 29 -39 29 -74 -2 -104
-126 -240 -178 -197 -21 17 -18 70 5 100 43 55 4 85 -45 35 -41 -40 -33 -146
14 -182 59 -45 189 38 237 152 59 142 -76 311 -236 292 -112 -13 -140 -53
-140 -199 0 -51 -7 -124 -15 -163 -17 -81 -82 -219 -119 -254 -25 -23 -29 -24
-77 -13 -28 7 -60 12 -72 12 -14 0 -45 26 -87 73 -73 81 -140 161 -140 169 0
3 33 7 73 10 184 12 335 157 392 377 8 34 29 82 45 108 53 83 31 157 -56 187
-66 22 -116 21 -149 -6 -25 -19 -27 -26 -22 -71 4 -42 11 -56 40 -83 45 -42
47 -50 27 -109 -57 -166 -158 -272 -279 -291 -22 -4 -66 -3 -97 1 -48 6 -62
13 -95 46 l-39 40 48 32 c68 46 120 102 130 140 11 43 -1 102 -27 138 l-22 30
25 30 c35 41 34 83 -3 120 -33 33 -65 37 -100 13 -22 -16 -24 -15 -69 29 -59
58 -105 77 -184 77 -46 -1 -77 -7 -116 -26z m192 4 c27 -8 61 -32 97 -68 l57
-56 27 23 c41 36 96 11 111 -50 5 -23 1 -33 -30 -62 l-36 -34 29 -29 c44 -44
51 -108 17 -166 -15 -25 -48 -59 -78 -80 -103 -69 -99 -60 -46 -113 l47 -47
84 -4 c53 -3 99 0 123 8 98 32 185 125 235 252 37 96 37 113 -6 151 -65 57
-66 155 -2 158 66 4 144 -18 162 -45 24 -33 19 -100 -9 -133 -13 -15 -33 -63
-45 -106 -66 -240 -222 -377 -431 -377 -22 0 -40 -4 -40 -9 0 -13 68 -101 137
-174 35 -37 63 -72 63 -77 0 -6 10 -10 22 -10 12 0 51 -7 86 -16 l64 -16 35
33 c41 40 95 149 118 238 9 35 19 118 22 185 3 66 9 128 14 137 26 50 156 65
229 26 68 -36 103 -86 108 -156 2 -32 -1 -75 -8 -95 -16 -51 -100 -132 -151
-147 -38 -12 -42 -11 -65 13 -33 33 -42 94 -20 136 10 19 24 32 36 32 18 0 18
-2 -5 -36 -32 -46 -32 -84 -1 -113 31 -30 67 -20 118 31 55 55 92 138 85 190
-13 100 -174 181 -270 137 -37 -17 -48 -52 -54 -169 -9 -190 -50 -323 -128
-409 -21 -23 -36 -43 -34 -45 2 -2 22 -15 44 -29 68 -44 83 -60 107 -112 32
-69 32 -205 0 -285 -40 -101 -23 -160 69 -243 l54 -49 -24 -19 c-18 -15 -39
-19 -95 -19 -71 0 -96 10 -96 37 0 8 -10 27 -22 44 -32 43 -28 100 12 176 28
54 31 68 32 154 2 158 -34 200 -171 203 l-64 1 -12 -45 c-41 -155 -164 -251
-330 -256 -74 -2 -83 -4 -119 -35 -45 -38 -96 -138 -96 -189 0 -19 8 -50 18
-68 25 -46 99 -120 160 -159 61 -39 82 -77 82 -147 0 -35 -6 -53 -27 -78 -16
-18 -33 -42 -39 -53 -10 -18 -20 -20 -80 -16 -115 6 -134 33 -63 91 68 54 101
152 57 166 -40 12 -133 81 -162 118 -15 20 -37 57 -48 83 -33 74 -17 177 52
349 12 28 10 33 -23 77 -95 125 -118 329 -61 551 8 32 13 60 11 63 -7 7 -87
-17 -128 -37 -78 -40 -152 -155 -184 -287 l-17 -73 26 -31 c14 -17 26 -36 26
-43 0 -8 9 -25 20 -39 11 -14 20 -34 20 -44 0 -27 -59 -81 -96 -89 -44 -9
-106 11 -138 45 -24 25 -27 35 -22 65 4 19 24 57 45 84 30 37 40 61 45 103 32
250 164 398 385 430 61 9 90 26 91 55 0 14 -72 36 -129 40 -73 5 -112 33 -140
98 -24 55 -24 58 -9 107 l16 50 -33 16 c-46 22 -62 61 -41 102 18 35 54 48 84
32 32 -17 42 -13 42 15 0 40 49 122 88 146 76 47 141 58 216 36z"/>
</g>
</svg>
