<?xml version="1.0" encoding="UTF-8" standalone="no"?>
<svg
   xmlns:dc="http://purl.org/dc/elements/1.1/"
   xmlns:cc="http://creativecommons.org/ns#"
   xmlns:rdf="http://www.w3.org/1999/02/22-rdf-syntax-ns#"
   xmlns:svg="http://www.w3.org/2000/svg"
   xmlns="http://www.w3.org/2000/svg"
   xmlns:sodipodi="http://sodipodi.sourceforge.net/DTD/sodipodi-0.dtd"
   xmlns:inkscape="http://www.inkscape.org/namespaces/inkscape"
   version="1.1"
   x="0px"
   y="0px"
   viewBox="0 0 448 448"
   enable-background="new 0 0 454 424"
   xml:space="preserve"
   id="svg2"
   inkscape:version="0.91 r13725"
   sodipodi:docname="logo.svg"
   width="448"
   height="448"
   inkscape:export-filename="/home/felizardo/playground/turnato/src/static/icon_512.png"
   inkscape:export-xdpi="25.714285"
   inkscape:export-ydpi="25.714285"><metadata
     id="metadata16"><rdf:RDF><cc:Work
         rdf:about=""><dc:format>image/svg+xml</dc:format><dc:type
           rdf:resource="http://purl.org/dc/dcmitype/StillImage" /><dc:title></dc:title></cc:Work></rdf:RDF></metadata><defs
     id="defs14" /><sodipodi:namedview
     pagecolor="#ffffff"
     bordercolor="#666666"
     borderopacity="1"
     objecttolerance="10"
     gridtolerance="10"
     guidetolerance="10"
     inkscape:pageopacity="0"
     inkscape:pageshadow="2"
     inkscape:window-width="2419"
     inkscape:window-height="1529"
     id="namedview12"
     showgrid="false"
     inkscape:zoom="1.7986528"
     inkscape:cx="244.07374"
     inkscape:cy="247.04109"
     inkscape:window-x="0"
     inkscape:window-y="33"
     inkscape:window-maximized="0"
     inkscape:current-layer="svg2" /><g
     id="g4"
     transform="matrix(0.99798683,0,0,1,-1.7329476,12.7)"><path
       d="M 188.2,331 C 138.5,316.6 111.8,279.3 74,303.1 c -19.1,12 -29.1,33.5 -33.2,55 -2.1,11.1 -3.4,23.1 -2.9,34.3 0.2,4.8 0.7,9.8 1.2,14.6 0.1,0.8 1.9,6.7 1.5,7.3 C -6.9,334.6 0.5,219.6 62.5,149.8 95.2,113.1 140.5,91.7 189,85.9 c 24.8,-3 51,-0.8 74.9,6.6 23.8,7.4 45.6,20.8 68.5,29.9 26.7,10.6 53.8,0.3 68,-24.5 15.6,-27.3 14.8,-59.5 11.8,-89.6 16.4,39.3 31.1,75.5 30.4,119 -0.6,41.1 -10.9,82 -32.6,117.3 -22.9,37.2 -57.7,66.8 -98.6,81.9 -18.9,7 -38.1,10.5 -58.2,11.8 -16.5,1.1 -47,-2.1 -65,-7.3 z m 57.2,-151.9 c -17.6,-10.7 -40.6,-5.1 -51.3,12.5 -10.7,17.6 -5.1,40.6 12.5,51.3 17.6,10.7 40.6,5.1 51.3,-12.5 10.7,-17.6 5.1,-40.6 -12.5,-51.3 z"
       id="path6"
       inkscape:connector-curvature="0" /></g></svg>