<?xml version="1.0" standalone="no"?>
<!DOCTYPE svg PUBLIC "-//W3C//DTD SVG 20010904//EN"
 "http://www.w3.org/TR/2001/REC-SVG-20010904/DTD/svg10.dtd">
<svg version="1.0" xmlns="http://www.w3.org/2000/svg"
 width="260.000000pt" height="260.000000pt" viewBox="0 0 260.000000 260.000000"
 preserveAspectRatio="xMidYMid meet">
<metadata>
Created by potrace 1.11, written by Peter Selinger 2001-2013
</metadata>
<g transform="translate(0.000000,260.000000) scale(0.100000,-0.100000)"
fill="#000000" stroke="none">
<path d="M567 2586 c-44 -16 -56 -25 -123 -91 -209 -206 -373 -519 -419 -795
-3 -19 -9 -55 -13 -80 -9 -59 -9 -297 1 -382 10 -91 59 -276 97 -368 183 -442
542 -748 990 -846 97 -21 322 -26 428 -9 627 101 1085 641 1067 1260 -2 72 -6
144 -9 160 -63 378 -296 703 -614 859 -376 185 -815 110 -1104 -188 -151 -155
-234 -345 -242 -551 -7 -165 23 -286 105 -421 67 -111 190 -213 309 -258 42
-16 78 -21 155 -21 92 0 105 3 166 33 133 64 222 186 265 362 27 110 15 182
-41 248 -56 67 -141 91 -225 62 -78 -26 -129 -83 -145 -162 -11 -57 -26 -98
-35 -98 -20 0 -80 63 -100 105 -28 59 -31 161 -5 230 81 217 339 353 577 304
81 -17 206 -81 271 -140 246 -222 313 -590 161 -892 -112 -223 -331 -390 -576
-441 -387 -80 -779 127 -967 511 -78 158 -109 302 -105 478 6 269 111 514 309
720 80 84 96 111 102 184 8 89 -39 174 -118 216 -39 21 -119 26 -162 11z"/>
</g>
</svg>
