<?xml version="1.0" standalone="no"?>
<!DOCTYPE svg PUBLIC "-//W3C//DTD SVG 20010904//EN"
 "http://www.w3.org/TR/2001/REC-SVG-20010904/DTD/svg10.dtd">
<svg version="1.0" xmlns="http://www.w3.org/2000/svg"
 width="512.000000pt" height="512.000000pt" viewBox="0 0 512.000000 512.000000"
 preserveAspectRatio="xMidYMid meet">
<metadata>
Created by potrace 1.11, written by Peter Selinger 2001-2013
</metadata>
<g transform="translate(0.000000,512.000000) scale(0.100000,-0.100000)"
fill="#000000" stroke="none">
<path d="M205 4078 c-22 -5 -59 -14 -82 -20 l-43 -11 -1 -466 c-1 -1305 1
-2173 6 -2181 3 -5 72 -30 153 -55 81 -26 174 -57 207 -71 73 -29 99 -30 167
-4 29 11 73 25 96 31 24 5 50 16 58 24 12 11 14 97 14 504 0 269 4 492 8 495
5 3 84 -22 175 -55 214 -76 288 -82 397 -32 77 36 75 31 75 200 -1 84 -5 157
-10 162 -6 5 -122 46 -260 91 -137 45 -279 91 -315 103 l-65 22 -3 329 c-1
188 2 334 7 339 5 5 50 -6 112 -28 57 -20 190 -66 294 -102 l190 -66 60 13
c59 12 193 55 204 65 9 9 8 299 -2 312 -5 7 -34 17 -65 23 -214 44 -422 120
-732 268 -194 93 -308 121 -490 120 -63 -1 -133 -5 -155 -10z m215 -38 c23
-13 24 -14 5 -18 -11 -2 -41 -10 -67 -18 -44 -14 -53 -14 -100 2 -73 23 -76
26 -43 41 38 17 170 12 205 -7z m174 -59 c32 -10 54 -21 48 -25 -34 -21 -119
-42 -137 -35 -11 5 -38 15 -60 24 l-40 16 50 18 c65 24 70 24 139 2z m-386
-16 c35 -10 67 -25 71 -34 10 -19 9 -206 -1 -216 -10 -10 -134 33 -150 52 -8
10 -13 48 -14 112 0 104 2 115 20 108 7 -3 40 -13 74 -22z m222 -70 c83 -25
85 -30 86 -150 1 -121 4 -118 -91 -85 -86 30 -85 28 -85 145 0 101 4 120 24
111 6 -3 36 -12 66 -21z m387 11 c24 -4 45 -11 48 -16 2 -4 -23 -17 -57 -28
-61 -21 -61 -21 -117 -2 -30 11 -57 20 -58 20 -2 0 -3 4 -3 8 0 23 103 32 187
18z m227 -72 c55 -19 51 -25 -32 -49 -54 -16 -66 -15 -130 12 -39 16 -38 20
15 38 51 19 90 18 147 -1z m-404 -14 c82 -24 89 -37 83 -155 -5 -110 -3 -107
-63 -84 -27 10 -58 19 -68 19 -32 0 -42 35 -41 140 1 58 6 100 12 100 5 0 40
-9 77 -20z m634 -64 c22 -7 34 -16 27 -20 -18 -12 -122 -37 -130 -32 -4 3 -23
8 -41 11 -18 3 -42 11 -54 17 -19 11 -17 13 31 28 29 8 55 18 58 22 7 6 41 -2
109 -26z m-403 -8 c61 -20 69 -26 75 -53 7 -29 6 -196 -1 -203 -4 -4 -134 40
-152 51 -17 11 -18 227 -2 227 6 0 42 -10 80 -22z m-665 -74 c38 -14 71 -28
74 -31 11 -10 7 -215 -4 -219 -11 -4 -142 38 -153 50 -8 7 -12 194 -5 214 6
16 9 16 88 -14z m909 -5 c40 -15 56 -27 59 -42 8 -37 4 -197 -5 -203 -11 -6
-142 38 -151 51 -4 6 -8 59 -8 119 l0 108 25 -6 c14 -4 50 -16 80 -27z m385
11 c24 -13 24 -13 -30 -32 -68 -24 -72 -24 -140 0 -52 19 -54 20 -30 30 58 23
159 24 200 2z m-988 -113 c4 -7 8 -40 9 -74 0 -35 1 -76 2 -91 2 -61 -4 -63
-90 -34 -43 15 -81 32 -85 37 -9 11 -11 209 -3 217 9 8 158 -41 167 -55z m842
20 c14 15 24 -53 21 -144 -2 -54 -4 -99 -4 -100 -2 -5 -147 52 -156 61 -12 12
-13 195 -1 214 4 8 26 4 70 -13 35 -13 66 -21 70 -18z m-1073 -246 c11 -27 7
-211 -4 -211 -16 0 -142 43 -151 51 -12 11 -15 212 -3 220 5 4 41 -4 80 -16
50 -16 73 -29 78 -44z m163 -34 c70 -26 73 -32 71 -162 -1 -88 -1 -90 -24 -87
-13 1 -37 9 -55 16 -17 8 -42 18 -56 22 -14 3 -28 12 -32 18 -4 6 -8 57 -8
114 0 119 -1 118 104 79z m-229 -218 c31 -10 55 -26 62 -41 14 -26 14 -208 0
-208 -23 0 -148 43 -154 53 -12 19 -10 211 1 219 6 4 18 5 26 1 8 -3 38 -14
65 -24z m220 -70 c33 -11 66 -25 73 -31 13 -12 18 -213 5 -221 -5 -3 -44 7
-88 22 l-80 26 -3 113 c-3 129 -6 126 93 91z m-220 -220 c71 -22 75 -30 75
-144 0 -56 -3 -104 -6 -107 -8 -8 -147 41 -159 57 -7 9 -13 211 -6 222 1 1 13
-2 29 -7 15 -5 45 -14 67 -21z m634 -65 c21 -7 3 -19 -55 -38 -47 -15 -53 -15
-110 3 l-59 19 45 19 c68 30 70 30 119 15 25 -8 52 -16 60 -18z m-418 -4 c39
-12 73 -28 78 -38 9 -18 10 -207 0 -216 -8 -8 -152 43 -161 57 -13 20 -10 217
3 217 7 0 43 -9 80 -20z m650 -83 c-4 -4 -35 -14 -69 -23 -58 -15 -64 -15
-114 4 l-53 20 28 11 c16 6 34 11 41 11 7 0 20 6 31 13 15 12 27 11 81 -7 34
-12 59 -24 55 -29z m-413 1 c44 -17 52 -23 53 -46 2 -40 -2 -196 -5 -199 -1
-2 -37 9 -78 23 -52 17 -77 31 -81 44 -4 15 -2 198 2 208 2 4 54 -10 109 -30z
m197 -68 c11 -5 30 -11 42 -15 11 -3 24 -13 28 -23 8 -19 7 -203 0 -211 -7 -6
-115 28 -142 45 -21 13 -23 22 -23 118 0 56 3 105 6 109 6 5 48 -6 89 -23z
m388 18 c48 -9 56 -13 45 -24 -7 -7 -28 -16 -47 -19 -19 -3 -42 -10 -51 -15
-19 -10 -147 27 -135 39 9 9 76 27 105 28 14 0 51 -4 83 -9z m-1075 -77 c20
-10 52 -22 70 -26 40 -8 44 -22 40 -145 -2 -79 -6 -94 -18 -91 -8 2 -40 11
-70 18 -30 8 -61 21 -69 29 -26 25 -21 234 6 234 2 0 20 -8 41 -19z m984 -44
c4 -7 8 -21 9 -32 3 -33 -3 -180 -7 -186 -6 -10 -136 37 -148 53 -12 17 -14
197 -2 216 8 13 135 -30 148 -51z m-727 -38 c33 -11 66 -26 73 -31 9 -8 12
-40 10 -117 -3 -87 -6 -106 -18 -104 -42 6 -133 33 -146 43 -11 10 -14 39 -14
121 0 126 -3 123 95 88z m-175 -243 c24 -11 25 -16 28 -116 3 -110 -4 -128
-41 -109 -10 6 -41 17 -67 25 -27 8 -52 20 -56 26 -10 16 -11 201 -1 215 8 11
65 -6 137 -41z m188 -53 c38 -11 56 -23 62 -39 10 -25 8 -199 -2 -209 -9 -9
-150 42 -160 58 -4 6 -8 59 -8 116 l0 103 28 -6 c15 -4 51 -14 80 -23z m-233
-217 c37 -16 62 -32 67 -46 10 -28 4 -205 -8 -204 -5 1 -35 9 -67 18 -88 25
-93 34 -91 151 1 55 2 101 3 103 3 8 44 -1 96 -22z m216 -67 c35 -11 69 -25
74 -30 6 -6 10 -60 11 -120 0 -107 -1 -110 -20 -104 -12 3 -46 13 -76 22 -30
8 -61 19 -67 25 -14 11 -19 209 -6 221 9 10 13 9 84 -14z m-213 -229 c34 -12
63 -25 64 -29 5 -21 4 -213 -2 -216 -7 -4 -150 41 -159 51 -3 3 -6 51 -7 107
-1 101 8 135 30 119 6 -5 39 -19 74 -32z m237 -72 c61 -23 65 -32 65 -145 0
-87 -2 -103 -16 -103 -24 0 -148 44 -156 55 -9 12 -11 209 -2 217 6 6 59 -6
109 -24z"/>
<path d="M3808 4059 c-68 -7 -161 -31 -188 -48 -10 -7 -15 -31 -16 -77 -1 -36
-6 -70 -11 -74 -4 -4 -46 -21 -93 -37 -47 -16 -93 -33 -102 -39 -17 -9 -18
-71 -19 -1046 -1 -570 2 -1041 5 -1047 3 -5 21 -13 38 -17 18 -3 39 -10 48
-14 8 -5 37 -16 63 -25 30 -11 52 -25 57 -39 4 -11 8 -66 8 -121 0 -55 0 -112
1 -126 1 -25 10 -30 119 -69 64 -23 214 -73 332 -112 118 -38 315 -103 436
-145 240 -81 252 -82 336 -44 24 11 62 25 84 30 36 10 42 15 47 44 2 17 5 289
6 604 l2 572 -23 15 c-13 8 -102 40 -198 71 -96 31 -227 74 -290 97 -63 22
-127 43 -141 48 -19 6 -51 0 -114 -21 -48 -16 -93 -29 -100 -29 -9 0 -12 125
-11 544 1 299 3 547 6 549 4 4 149 -40 158 -48 10 -10 14 -81 17 -300 1 -137
3 -259 3 -270 2 -16 13 -24 48 -33 25 -7 114 -38 197 -68 130 -48 162 -56 222
-56 74 -1 157 25 204 61 l25 19 1 306 2 306 -41 15 c-23 8 -63 20 -91 25 -95
21 -95 20 -95 181 0 103 -3 141 -12 143 -7 2 -40 10 -73 17 -104 22 -285 88
-435 159 -198 93 -278 113 -412 99z m96 -47 c45 -12 67 -29 45 -35 -8 -3 -38
-11 -66 -20 -49 -14 -56 -14 -102 3 -27 11 -51 17 -54 14 -3 -3 -8 -1 -11 4
-3 5 9 15 27 22 17 6 41 16 52 21 21 9 46 7 109 -9z m224 -75 c49 -15 54 -29
15 -40 -16 -4 -43 -12 -60 -18 -27 -8 -44 -6 -95 13 l-63 22 55 18 c67 21 92
21 148 5z m-409 -13 c107 -31 101 -22 101 -151 0 -71 -4 -113 -10 -113 -14 0
-129 39 -152 51 -16 8 -18 25 -18 119 0 77 3 110 12 110 6 0 36 -7 67 -16z
m633 -65 c21 -5 38 -13 38 -17 0 -4 -26 -16 -58 -27 l-59 -21 -56 20 c-31 12
-57 23 -57 26 0 3 21 13 48 22 47 17 74 16 144 -3z m-377 -20 c60 -21 64 -33
61 -162 -2 -74 -5 -91 -17 -89 -23 5 -123 45 -136 55 -9 7 -13 43 -13 118 l0
109 28 -6 c15 -4 49 -15 77 -25z m-385 -74 c0 -34 -14 -38 -56 -16 -37 20 -37
20 -13 29 64 24 69 23 69 -13z m670 -22 c2 -2 5 -53 6 -113 1 -78 -2 -110 -11
-110 -14 0 -110 27 -147 42 l-28 10 0 108 c0 78 4 110 13 113 10 3 151 -39
167 -50z m342 36 l23 -12 -30 -13 c-16 -7 -40 -13 -52 -14 -12 0 -25 -4 -28
-10 -9 -15 -27 -12 -86 14 l-54 24 35 15 c41 17 156 15 192 -4z m-152 -103
c24 -11 25 -15 28 -124 1 -62 -1 -112 -5 -112 -18 0 -138 41 -150 52 -18 15
-19 224 0 231 11 4 52 -11 127 -47z m-937 22 c29 -11 58 -28 64 -36 14 -17 17
-208 4 -216 -8 -6 -94 21 -131 40 -24 12 -25 16 -26 123 -1 128 -1 127 89 89z
m234 -78 c61 -22 62 -23 67 -64 3 -22 5 -74 4 -113 -1 -85 -1 -85 -108 -50
l-65 22 -3 119 -3 118 23 -5 c13 -3 51 -15 85 -27z m1040 -199 c59 -16 60 -27
6 -41 -26 -6 -53 -16 -59 -21 -7 -6 -34 -1 -74 14 -67 26 -67 31 4 52 45 14
61 13 123 -4z m-1278 -17 c18 -8 41 -14 51 -14 24 0 30 -31 29 -149 l-1 -99
-71 25 c-40 14 -77 30 -83 35 -8 5 -12 48 -12 118 l0 110 27 -6 c14 -4 41 -13
60 -20z m885 2 c38 -13 73 -30 77 -38 5 -7 9 -59 9 -115 0 -110 -5 -120 -50
-98 -14 7 -44 18 -67 24 -24 7 -47 19 -52 29 -14 26 -12 222 2 222 7 0 43 -11
81 -24z m-584 -121 c10 -26 8 -200 -2 -210 -9 -9 -150 41 -159 57 -10 15 -12
211 -3 220 3 4 39 -5 80 -19 56 -19 78 -31 84 -48z m885 -5 c8 -35 3 -200 -6
-206 -4 -2 -40 9 -81 24 l-73 28 -3 104 c-1 57 -1 109 2 116 3 9 25 5 80 -13
64 -22 76 -30 81 -53z m-1173 -174 c17 -9 37 -16 44 -16 7 0 15 -12 18 -27 6
-30 6 -194 0 -205 -2 -3 -27 2 -54 12 -28 10 -50 16 -50 14 0 -3 -13 2 -29 10
l-28 15 -1 112 -1 111 35 -5 c19 -3 49 -13 66 -21z m855 9 c19 -8 43 -15 53
-15 36 0 45 -28 46 -141 1 -121 9 -114 -92 -84 -80 23 -84 30 -84 151 0 117 2
120 77 89z m-646 -76 c35 -12 70 -26 77 -32 8 -6 12 -43 12 -118 0 -95 -2
-109 -16 -109 -21 0 -134 40 -151 53 -19 14 -18 227 0 227 7 0 42 -10 78 -21z
m899 -4 c30 -10 58 -23 62 -29 10 -15 10 -226 0 -226 -15 0 -137 43 -149 53
-9 6 -13 43 -13 117 0 124 -6 119 100 85z m-1106 -225 l66 -30 -1 -111 c-1
-125 10 -115 -89 -88 -76 20 -79 26 -78 150 1 127 -1 126 102 79z m186 -60
c28 -11 58 -20 67 -20 32 0 42 -32 43 -137 0 -56 -4 -104 -8 -107 -10 -6 -138
38 -158 54 -11 10 -14 39 -14 121 0 63 4 109 10 109 5 0 32 -9 60 -20z m-202
-226 c32 -9 63 -21 70 -26 8 -7 12 -45 12 -124 0 -63 -1 -114 -3 -114 -17 0
-152 53 -158 61 -3 6 -6 58 -6 115 0 118 -4 114 85 88z m241 -81 c37 -13 57
-27 62 -42 10 -24 7 -196 -3 -206 -7 -7 -137 33 -155 48 -9 6 -13 43 -13 119
l0 110 28 -5 c15 -3 51 -14 81 -24z m614 -54 c47 -12 41 -21 -33 -46 -55 -19
-55 -19 -115 3 -57 21 -59 22 -35 32 79 33 97 34 183 11z m-120 -109 c27 -13
27 -14 27 -111 0 -115 -4 -133 -30 -119 -10 5 -36 13 -57 16 -85 13 -88 17
-91 133 -1 58 -1 110 2 117 4 10 18 8 63 -5 32 -10 70 -24 86 -31z m330 34
c48 -16 62 -34 27 -34 -10 0 -39 -7 -63 -15 -40 -13 -47 -13 -94 5 -28 10 -53
16 -57 13 -3 -4 -6 -1 -6 5 0 7 1 12 3 12 1 0 20 7 42 15 53 19 91 18 148 -1z
m-175 -88 c55 -23 72 -34 74 -50 0 -12 2 -61 2 -110 1 -90 -8 -111 -37 -88 -6
5 -38 17 -69 26 -66 19 -69 25 -67 156 2 85 5 104 18 98 3 -2 39 -16 79 -32z
m391 15 c56 -19 56 -26 0 -36 -19 -3 -43 -12 -53 -19 -17 -11 -28 -9 -70 6
-72 28 -75 35 -20 52 65 20 80 19 143 -3z m-1317 0 c13 -5 44 -17 71 -26 l47
-17 0 -108 c0 -60 -4 -111 -8 -114 -7 -4 -126 33 -149 47 -6 4 -10 54 -10 117
-1 117 1 120 49 101z m260 -88 c40 -14 75 -28 78 -30 3 -3 5 -54 6 -114 1
-126 7 -121 -101 -84 l-70 24 -3 115 c-2 71 1 116 7 116 5 0 43 -12 83 -27z
m885 1 c12 -8 31 -14 42 -14 32 0 42 -33 40 -140 -2 -81 -5 -100 -17 -100 -23
0 -136 43 -144 54 -9 13 -10 210 -2 219 9 9 53 -2 81 -19z m-444 -141 c101
-27 98 -20 96 -219 -1 -94 -5 -177 -9 -183 -5 -9 -14 -9 -36 0 -16 6 -37 12
-47 14 -10 2 -33 10 -52 16 l-33 12 -2 189 c0 125 3 188 10 188 6 0 38 -8 73
-17z m-657 -80 c31 -10 60 -26 66 -36 11 -22 12 -207 0 -219 -6 -6 -133 35
-152 50 -3 2 -6 53 -6 113 -2 125 -6 122 92 92z m859 7 c14 -5 37 -12 51 -14
50 -9 54 -21 54 -137 0 -59 -4 -110 -8 -113 -10 -6 -140 40 -159 56 -9 7 -13
42 -13 114 0 104 0 104 24 104 14 0 36 -4 51 -10z m-605 -90 c39 -1 45 -16 46
-130 1 -61 -2 -113 -6 -115 -7 -5 -120 29 -150 45 -18 10 -20 22 -20 119 0 59
2 110 5 113 3 3 29 -3 58 -13 28 -10 59 -19 67 -19z m837 14 c86 -25 93 -36
91 -154 0 -55 -4 -102 -7 -105 -7 -4 -128 36 -150 49 -15 10 -15 226 0 226 6
0 36 -7 66 -16z m-213 -225 c39 -12 74 -26 78 -33 4 -6 8 -57 8 -112 0 -118
-5 -124 -76 -94 -25 11 -54 20 -64 20 -11 0 -24 9 -30 19 -14 28 -13 221 1
221 7 0 44 -10 83 -21z m-584 -106 c3 -3 5 -54 6 -114 1 -121 1 -121 -63 -94
-20 8 -50 18 -67 21 -17 3 -34 10 -38 17 -9 14 -11 221 -3 229 5 5 154 -48
165 -59z m320 47 c55 -19 55 -19 27 -29 -16 -6 -34 -11 -40 -11 -7 0 -22 -6
-33 -14 -18 -13 -28 -12 -82 7 -34 12 -62 25 -62 29 0 8 86 36 115 37 11 0 45
-8 75 -19z m484 -12 c34 -12 67 -26 74 -31 18 -14 17 -227 -1 -227 -19 0 -130
40 -144 52 -17 14 -18 228 -2 228 7 0 39 -10 73 -22z m-635 -81 c26 -8 47 -22
51 -33 4 -10 7 -64 6 -119 -1 -114 4 -110 -96 -73 l-65 24 -3 104 c-3 126 -2
132 35 120 15 -5 48 -15 72 -23z m289 3 c5 -33 -14 -40 -59 -22 l-39 15 37 18
c46 21 57 19 61 -11z m-81 -72 c67 -21 73 -26 78 -53 8 -51 1 -205 -10 -204
-5 0 -44 13 -85 27 l-75 27 -3 113 c-2 86 0 112 10 112 7 0 46 -10 85 -22z
m194 -69 c100 -33 94 -23 95 -148 2 -94 0 -111 -14 -111 -18 0 -132 40 -148
52 -14 10 -19 228 -6 228 5 0 38 -9 73 -21z m251 -81 c45 -18 58 -28 62 -48 7
-32 5 -210 -2 -210 -17 0 -148 53 -154 63 -4 7 -8 58 -8 115 0 99 1 102 22
102 12 0 48 -10 80 -22z"/>
<path d="M2808 4025 c-2 -1 -35 -6 -75 -9 -130 -12 -254 -51 -460 -144 -142
-64 -308 -126 -448 -166 l-110 -32 0 -1310 c-1 -720 1 -1317 3 -1326 3 -11 38
-28 109 -51 l106 -35 86 25 c107 30 584 181 631 198 19 8 121 44 225 81 105
37 193 72 198 78 4 6 6 58 6 116 -3 170 -8 155 69 184 37 13 78 27 92 30 53
12 51 -9 54 479 l3 456 -36 15 c-20 8 -54 17 -75 20 -21 4 -51 16 -68 27 -26
19 -29 26 -26 67 l3 47 100 36 100 36 0 459 0 459 -75 24 c-128 40 -125 37
-128 115 l-3 68 -46 20 c-28 12 -76 22 -122 25 -42 2 -84 5 -93 7 -9 2 -18 3
-20 1z m106 -46 c44 -12 40 -19 -26 -43 -45 -17 -51 -17 -100 -1 -29 10 -57
21 -62 26 -27 24 116 38 188 18z m-181 -86 c6 -4 -19 -17 -56 -29 l-68 -23
-45 20 c-25 10 -53 19 -62 19 -23 1 34 31 73 40 28 6 134 -12 158 -27z m-243
-63 l45 -12 -69 -24 -68 -23 -64 22 c-35 11 -61 23 -58 26 26 27 136 33 214
11z m-202 -79 c19 -11 -104 -54 -132 -47 -12 3 -40 13 -61 22 l-39 16 55 22
c51 21 58 21 109 8 30 -8 61 -17 68 -21z m851 6 l43 -13 -44 -17 c-57 -22 -58
-22 -58 13 0 34 0 34 59 17z m-1114 -66 l60 -19 -48 -22 c-62 -27 -90 -27
-152 1 l-50 23 55 17 c71 22 65 22 135 0z m-162 -92 c40 -15 57 -28 61 -44 9
-37 5 -205 -5 -205 -20 0 -144 43 -150 52 -3 5 -6 56 -6 113 -1 103 -1 105 22
105 13 0 48 -9 78 -21z m947 -150 c0 -76 -3 -99 -13 -99 -8 0 -44 11 -82 24
-73 25 -85 40 -80 90 4 36 9 40 70 60 28 9 56 20 64 25 33 21 41 2 41 -100z
m-224 -292 c2 -365 7 -342 -93 -375 -60 -20 -61 -20 -66 -1 -3 10 -6 160 -6
333 l-2 313 28 11 c15 5 46 17 68 25 74 28 70 48 71 -306z m216 118 c4 -5 8
-56 8 -112 0 -101 -8 -126 -33 -105 -7 6 -32 16 -57 22 -80 20 -84 27 -85 138
-1 53 3 102 7 109 7 8 28 5 81 -15 40 -14 75 -31 79 -37z m-940 34 c29 -11 56
-26 60 -32 9 -14 11 -211 2 -219 -5 -5 -140 38 -154 49 -2 3 -5 53 -7 114 -2
109 -2 109 22 109 13 0 48 -9 77 -21z m-7 -291 c31 -11 60 -29 65 -39 13 -23
9 -202 -4 -211 -5 -3 -22 0 -37 8 -16 8 -35 14 -44 14 -9 0 -29 7 -44 15 l-29
14 1 111 c1 127 -2 124 92 88z m866 5 c83 -23 90 -36 87 -159 -2 -79 -6 -98
-17 -96 -70 15 -128 35 -140 47 -11 11 -15 41 -16 112 -1 54 0 101 2 106 6 10
16 9 84 -10z m1 -292 c17 -7 19 -10 8 -15 -13 -5 -96 -34 -110 -38 -10 -3
-120 36 -120 43 0 7 44 26 75 31 24 4 115 -9 147 -21z m-868 -5 c33 -13 62
-30 66 -38 10 -17 9 -207 0 -213 -4 -3 -40 7 -79 22 -56 20 -71 30 -72 47 -1
12 -2 63 -3 113 -1 107 -3 106 88 69z m634 -63 c33 -8 27 -18 -17 -31 -51 -16
-51 -16 -51 11 0 30 10 40 29 31 9 -4 26 -9 39 -11z m655 -74 c46 -12 45 -15
-16 -33 l-47 -14 0 29 c0 32 7 34 63 18z m-1221 -183 c9 -13 10 -161 2 -203
l-6 -30 -66 24 c-37 13 -72 31 -78 39 -9 11 -14 211 -5 221 4 5 147 -41 153
-51z m886 -116 c1 -51 1 -99 -2 -106 -3 -9 -23 -6 -73 13 -37 13 -74 30 -81
37 -14 14 -19 76 -8 95 9 13 43 28 81 35 13 3 32 9 42 15 10 6 23 9 28 7 6 -1
11 -45 13 -96z m-220 -305 c0 -235 -3 -327 -12 -334 -18 -15 -146 -59 -150
-52 -2 3 -3 154 -2 335 l1 329 60 23 c33 12 70 22 82 23 l22 1 -1 -325z m-733
158 c28 -10 55 -22 61 -26 15 -9 17 -227 2 -227 -15 0 -131 42 -144 52 -6 5
-11 51 -11 119 0 126 -7 120 92 82z m863 6 c37 -12 73 -26 80 -32 8 -6 12 -42
12 -114 0 -117 -6 -127 -63 -100 -18 9 -45 18 -61 21 -16 3 -34 10 -39 15 -10
10 -17 193 -9 219 5 15 1 16 80 -9z m34 -303 c51 -11 58 -28 57 -139 0 -56 -3
-105 -5 -108 -4 -7 -113 29 -149 48 -18 10 -20 21 -20 110 1 54 4 103 8 110 5
8 16 8 45 -2 20 -8 49 -16 64 -19z m-906 8 c86 -25 87 -27 84 -179 -1 -38 -5
-73 -8 -77 -8 -8 -129 37 -147 54 -5 5 -10 56 -11 113 -1 119 -5 115 82 89z
m852 -283 l47 -19 -28 -11 c-16 -6 -35 -11 -43 -11 -9 0 -23 -4 -32 -9 -16 -8
-93 5 -142 25 -20 8 98 52 128 47 12 -2 44 -12 70 -22z m-836 -14 c44 -17 58
-28 63 -47 4 -20 5 -211 1 -210 -1 1 -32 11 -71 24 -46 15 -74 30 -81 44 -8
16 -12 191 -5 221 1 2 9 0 19 -3 9 -4 43 -17 74 -29z m611 -58 c42 -11 48 -24
15 -32 -13 -3 -33 -9 -45 -12 -21 -7 -23 -4 -23 24 0 35 0 35 53 20z m-625
-231 c73 -23 82 -32 83 -83 2 -67 -4 -166 -11 -170 -4 -3 -40 7 -79 22 -55 20
-71 31 -73 47 -4 54 -3 206 2 206 3 0 38 -10 78 -22z"/>
</g>
</svg>
